<?xml version="1.0" encoding="utf-8"?>
<svg version="1.1" id="Layer_1" xmlns="http://www.w3.org/2000/svg" xmlns:xlink="http://www.w3.org/1999/xlink" x="0px" y="0px"
	 viewBox="0 0 100 149.6" style="enable-background:new 0 0 100 149.6;" xml:space="preserve">
<style type="text/css">
	.flourish{fill:#dad4b7;}
</style>
<path class="flourish" d="M94.3,31.3C94.3,31.3,94.3,31.3,94.3,31.3c0.4-3.9,1.8-7.6-2.3-10.7c-4.1-3-10.1,0.6-13.8,2.8
	c-0.6-0.3-1.2-0.5-1.8-0.7c5.5-3.8,20.9-8.2,22,1.3C98.7,27.5,96.5,29.1,94.3,31.3 M94.7,42c-1.7,1.7-4.9,1.9-6.9,3.5
	c-1.3-1.4-2.7-2.6-3.9-3.3c-7.1-4.2-16-1.4-22.9,1.6c-0.3-0.6-0.6-1.2-0.9-1.7c2.7-3.9,6.3-6.2,11.1-6.7c2.9-0.3,5.8,1,8.7,0.2
	c4.5-1.3,2.3-9.2-0.6-11.4c3.7-2.2,8.7-5,12.5-2.2c3.6,2.7,1.7,7.1,1.3,11c-0.3,0.7-0.5,1.4-0.2,2.2C93.9,37.3,98,38.8,94.7,42
	 M85.8,55.8c-2.3,0.4-4.9-1.5-7.2-1.6c-2.2-0.1-3.9,1.6-5.4,2.9c-4.2,3.8-6.5,0.3-8.7-2.7c-1.1-1.5-2.6-2.2-4.3-2.5
	c1.5-2.1,1.9-4.5,1.4-6.7c6.6-2.8,13.6-5,20.6-2.2C86.4,44.7,93.9,54.4,85.8,55.8 M63.8,77.2c4.1-4.4,6.1-10.2,5.6-16.6
	c0-0.1,0-0.1,0-0.2c1.7-0.1,3.5-1,4.7-2c2.1-1.7,4-2.8,6.5-2.2C77.1,63.6,71.5,72.8,63.8,77.2 M62,76.7c-0.7,0.7-1.5,1.4-2.3,2
	c0.7-1,1.3-2,1.9-3c3-5,5.1-10.5,4.6-16.3c0.1,0.1,0.2,0.1,0.3,0.2c0.4,0.3,0.9,0.5,1.4,0.6c-0.1,0.1-0.2,0.3-0.1,0.5
	C68.3,67,66.2,72.5,62,76.7 M58.6,78.5c-0.2,0.3-0.4,0.6-0.7,0.9c-0.3,0.1-0.6,0.1-0.8,0.2c-0.2,0-0.5,0-0.7,0.1
	c-0.3-1.5-0.7-2.9-1.1-4.3c-1.5-7.3-1.3-15.3,3.1-21.5c0.2-0.2,0.4-0.4,0.6-0.6c0,0,0,0,0,0c3.5,0.3,4.3,2.7,6,4.8
	c0.9,5.7-0.9,11.2-3.8,16.2C60.4,75.8,59.5,77.2,58.6,78.5 M34.5,66.9c-0.1-0.1-0.1-0.1-0.2-0.2c1.9-3,3.4-6.5,6.7-8.1
	c0.4-0.2,0.9-0.3,1.4-0.4c7.3,5.3,10.4,12.8,12.3,21.4C46.7,79.5,39.2,72.7,34.5,66.9 M25.1,70.1c-6.7,0-4.4-8.9-1.7-11.8
	c0.1-0.1,0.1-0.2,0.2-0.3c3.4-3.4,7.7-5.7,11.1-9.1c2.1-2.1,4.2-4,6.6-5.7C48,40.7,58.5,45.1,55,53.4c-0.2,0.1-0.3,0.2-0.5,0.3
	c-6,4-13.6-0.1-18.5,5.9C32.7,63.7,31.5,70.1,25.1,70.1 M20.3,58c-3.9,0.1-9.4,0-8.1-5.7c0.5-1.9-0.1-3.5-1.1-5.2
	c-0.3-0.5-0.6-1-1-1.4c0.8-14.1,20.6-10.8,27.8-3c-2.7,2.1-4.8,4.7-7.4,6.8C27.1,52.5,23.2,54.6,20.3,58C20.3,58,20.3,58,20.3,58
	 M9.1,44.8c-0.7-0.6-1.5-1.2-2.2-1.7c-1.2-0.9-2.5-1.7-3.6-2.8c-3-3,1.2-7.7,3.3-9.5c9.4-8,26.7,3.1,32.1,11.2c0,0,0,0,0,0
	C30.9,33.6,10.9,30.7,9.1,44.8 M32.7,12.7c2.1-1.1,3.7-2.8,5.2-4.5c0.9-1,1.7-2,2.5-2.9c2.1-1.3,4.4-1.8,6.8-0.3
	C49,6.1,50.2,8,51,10c-1.3-1.9-2.9-3.6-5.3-3.4c-3.7,0.3-6.4,4.5-9.2,6.5c-4,2.9-16,7.7-14,14.2c-0.9-0.3-1.8-0.6-2.7-0.8
	c0,0,0-0.1,0-0.1C15.8,18.3,27.3,15.4,32.7,12.7 M52.5,4.5c8.3,6.2-1.1,24.5-2.5,32.5c-0.3,0-0.6,0.1-0.8,0.1
	c2-8.9,6.2-18.5,2.9-27.4c-1-2.7-2.8-5.3-5.5-6.5c-1.2-0.6-2.4-0.6-3.6-0.4C45.8,1.4,50.2,2.8,52.5,4.5 M56.9,39
	c-1.3-0.8-2.8-1.5-4.5-1.8c1-5.5,4.5-14,5.3-21.6c4-4.8,6.6,1.9,8.9,4.9c2.3,2.9,7,2.8,10.2,3.9c1.4,0.5,2.6,1.9,3.3,3.5
	C71.2,25.7,59.1,29.4,56.9,39 M59.1,40.8c-0.4-0.4-0.8-0.8-1.3-1.1c0,0,0,0,0-0.1c1.8-9.6,14.4-13,22.7-10.4c0.7,2.5,0.1,5.1-3,5
	c-2.2,0-4.3-0.5-6.5-0.5C66.1,33.9,61.8,36.9,59.1,40.8 M40.7,40.7C40.7,40.7,40.7,40.6,40.7,40.7c-3.5-5.2-9.9-10.3-16.8-12.9
	c-3.1-5.9,9.3-11.1,12.9-13.6c2.6-1.8,4.5-4.4,7.4-6c3.9-2.1,6.3,2.9,7.6,5.7c0,0.1,0.1,0.1,0.2,0.2c1,7.7-2.4,15.7-4.1,23.2
	C45.4,37.9,42.9,39.2,40.7,40.7 M49.6,63.1c-1.3-1.8-2.9-3.5-4.7-5c1.9,0,4,0.2,5.5-0.1c0.2,0,0.4-0.1,0.6-0.2
	C50.3,59.5,49.8,61.3,49.6,63.1 M53.5,70.1c-0.7-1.8-1.6-3.5-2.7-5.2c0.1-0.1,0.2-0.3,0.2-0.5c0-2.6,1-5,2.1-7.3c1-0.4,2.1-1,3-1.6
	C53.8,59.9,53.1,65,53.5,70.1 M43.9,41.5c4.4-2.5,9.2-2.6,13.4,0.7c4.1,3.3,2.2,7.2-0.7,9.9C58.3,45.1,50.7,40.8,43.9,41.5
	 M55.6,4.4c1.2-3.8,7.2-2.7,8.9,0.1c0.9,1.5,2,1.5,3.5,0.7C71.6,3.3,75.2,4,78.7,6c4.2,2.4,4.7,7.3,3.5,11.6c-0.1,0.2,0,0.4,0,0.5
	c-3,1-5.7,2.4-7.4,3.8c-0.1,0.1-0.2,0.2-0.2,0.3c-1.6-0.4-3.2-0.7-4.7-1.2c-2.5-0.8-3.6-3.7-5-5.7c-2.1-3-4.6-3.8-7.1-2
	C57.9,10,57.3,6.9,55.6,4.4C55.6,4.5,55.6,4.5,55.6,4.4 M99,28.9c1.2-1.6,1.2-5,0.6-6.8c-2.1-6.1-9.4-6.3-15.8-4.5
	C86,8.3,79.5,2.5,70.2,2.4c-1.5,0-3.3,2.5-4.8,0.5c-1.1-1.5-2.8-1.6-4.5-2.2c-3-0.9-5.3-0.3-6.5,2.5c-1.2-1.1-2.8-2-4.8-2.6
	c-3.8-1.1-7.2-0.4-10.1,2.1C37.4,4.5,35.9,7,33.9,9c-2,1.9-4.8,2.8-7.3,3.9c-5.8,2.5-11.7,6.7-9.5,13.3c-5.1-0.5-10,0.7-13.8,4.7
	c-1.9,1.9-4.1,6-3,8.8c1.4,3.3,4.6,4.8,7.3,6.9c3.8,3.1,0.2,7.4,2.7,11.1c1.7,2.6,5.9,2.8,9,2.7c-2.3,5.8,0.2,13,7.9,11.9
	c2.7-0.4,4.4-1.8,5.8-3.6c6,7.4,14.5,13.8,24.4,13.2c0.7,0,1.4-0.1,2.1-0.3c9.6,20.4,3.5,44.7-4.9,65.6c-0.9,2.3,2.8,3.3,3.7,1
	c8.8-21.6,11-45.5,4.8-67.8c9.1-4,16-15.5,19.6-23.4c0,0,0-0.1,0-0.1c0.8,0.3,1.6,0.6,2.4,0.5c2.4-0.2,4.5-0.9,5.5-3.2
	c1.1-2.4-0.1-5.3-1.9-7.6c3-2.3,11.5-3.8,8.1-9.5c-0.2-0.2-0.4-0.4-0.7-0.7c-1.7-1.6-1.7-3.3,0-4.8C97.2,30.8,98.2,30.1,99,28.9"/>
</svg>
