<?xml version="1.0" encoding="utf-8"?>
<!-- Generator: Adobe Illustrator 25.2.0, SVG Export Plug-In . SVG Version: 6.00 Build 0)  -->
<svg version="1.1" id="Layer_1" xmlns="http://www.w3.org/2000/svg" xmlns:xlink="http://www.w3.org/1999/xlink" x="0px" y="0px"
	 viewBox="0 0 73.5 103.3" style="enable-background:new 0 0 73.5 103.3;" xml:space="preserve">
<style type="text/css">
	.st0{fill:#5E3C20;}
	.st1{fill:none;}
</style>
<path class="st0" d="M67.1,56.3c-0.3,0.3-0.7,0.6-1.1,0.9c-0.7,0.5-1.2-0.3-1.7-1.1c0.2,0.1,0.5,0.2,0.8,0.2c0.6,0,0.9-0.4,1-0.9
	c0.5,0.2,1.1,0.3,1.7,0.2C67.6,55.9,67.3,56.1,67.1,56.3 M64.1,55.5c-0.6-0.5-1-1-1.7-1.3c0,0-0.1,0-0.1,0c-1.4-1.1-2.8-2-4.4-2.7
	c0.7-0.1,1.4-0.3,2.1-0.7c0,0,0,0,0,0c1.6,0.4,3.8,1,5.3,0.1c0,0,0,0,0.1,0c1,0.1,2.9,1.6,1.4,2.4c-0.4,0.2-0.7,0.5-0.8,1
	c-0.1,0.3-0.1,0.5-0.1,0.8C65.7,56.3,64.7,56,64.1,55.5 M59.3,54.6c-1-0.1-2-0.4-2.9-0.8c-1-0.5-3.2-1.6-3-3
	c1.2,0.4,2.4,0.7,3.6,0.7c0,0,0,0,0.1,0c1.8,0.7,3.3,1.6,4.8,2.8C61,54.3,60.2,54.6,59.3,54.6 M54.1,49.3c-0.1,0.1-0.2,0.1-0.2,0.2
	c-0.1,0.1-0.2,0.2-0.4,0.4c0-0.1,0-0.2,0-0.3c0.3-1.5,0.7-3,1.7-4.2c1-1.3,2.5-1.5,3.9-2.1c-0.7,1.5-1.3,3.1-2.6,4.3
	c-0.3,0.3-0.6,0.5-0.9,0.7C55,48.5,54.5,48.8,54.1,49.3 M60.3,40.9c0-0.7-0.2-1.3,0.1-1.9c0.2-0.6,0.8-0.8,1.3-0.5
	c0.3,0.2,0.5,0.5,0.8,0.7c0.5,0.4,1.1,0.7,1.6,1.1c0.7,0.7,0.5,1.5,0,2.2c-0.2-0.4-0.5-0.7-0.8-1.1c-0.4-0.6-0.9-1.3-1.6-1.5
	C61.2,39.8,60.7,40.3,60.3,40.9 M64.6,42.1c0.8-0.1,1.2,0.7,1.4,1.4c0.1,0.6,0.8,0.5,1,1.1c0.5,1.3-1.5,1.9-2.4,2.1
	c-0.3-0.4-0.6-0.7-1.1-0.8c0.7-0.7,1.1-1.6,0.9-2.6c0-0.2-0.1-0.3-0.2-0.5C64.3,42.5,64.5,42.3,64.6,42.1 M61.6,49.6
	c0.1-0.1,0.1-0.3,0-0.3c-0.8-0.3-1.5-0.7-2.3-0.9c1.2-0.5,2.7-1.1,3.9-2.1c1.3-0.2,1.2,1.1,2,1.8c0.2,0.2,0.5,0.4,0.7,0.6
	c0.7,0.5,0.3,1.2-0.2,1.7c-1.2,1.1-3.6,0.5-5.1,0.1C60.8,50.2,61.2,49.9,61.6,49.6 M57.3,48.3c1.3,0.1,2.6,0.6,3.7,1.1
	c-1,0.9-2.2,1.5-3.6,1.6c-1.3,0.1-2.6-0.3-3.8-0.7c0-0.1,0.1-0.1,0.1-0.2c0.3-0.4,0.5-0.7,0.8-1c0,0,0.1,0,0.1-0.1
	c0.2-0.1,0.3-0.2,0.5-0.4C55.8,48.5,56.5,48.3,57.3,48.3 M59.7,43L59.7,43c0.5-0.7,1.2-2.9,2-2.6c0.6,0.2,1.1,1.1,1.5,1.6
	c0.5,0.6,0.9,1.1,0.9,1.9c0,1.2-1.2,2.1-2.1,2.6c-1,0.7-2.2,1.2-3.3,1.6c0,0,0,0-0.1,0C58,48,57.5,47.9,56.9,48c-0.2,0-0.3,0-0.4,0
	c0.3-0.2,0.5-0.4,0.8-0.7C58.4,46.1,59,44.4,59.7,43 M67.3,46.9c0,0.3-0.4,0.9-0.1,1.1c0.3,0.2,0.5,0.3,0.7,0.6
	c0.2,0.3,0.3,0.7,0.1,1.1c-0.2,0.6-1.4,0.5-2,0.5c0.1-0.1,0.2-0.3,0.3-0.4c0.5-0.8-0.3-1.4-0.8-1.8c-0.4-0.3-0.6-0.7-0.8-1.1
	c0.7-0.2,1.8-0.5,2.3-1.2C67.5,46.1,67.3,46.4,67.3,46.9 M69.3,49.8c0.1,1.3-0.9,2-2.1,1.7c-0.4-0.5-0.9-0.8-1.5-0.9
	c0.1-0.1,0.1-0.1,0.2-0.2c0.7,0.1,1.6,0.2,2.2-0.3c0.5-0.4,0.3-1.1,0.1-1.6c-0.1-0.3-0.3-0.4-0.6-0.6c-0.1,0-0.1-0.3-0.1-0.5
	C68.6,47.7,69.2,48.7,69.3,49.8 M68.7,52.6c-0.1,0.3,0.1,0.7,0.2,1c0.3,0.8-0.2,1.5-1,1.8c-0.6,0.1-1.2,0-1.7-0.2
	c0-0.2,0.1-0.4,0.1-0.6c0.1-1.1,1.6-1,1.4-2.2c0-0.2-0.1-0.4-0.2-0.6c0.5,0,0.9,0,1.2-0.2C69.2,52,68.8,52.2,68.7,52.6 M31.8,24.7
	c-0.4-1.8-0.9-3.6-0.7-5.4c0.2-1.4,1.6-5.9,3.6-3.4c1.3,1.7,0.8,3.7,0,5.5c-0.4,0.8-1.1,3-2.2,3.5c-0.2,0.1-0.5,0.2-0.8,0.1
	C31.8,24.9,31.8,24.8,31.8,24.7 M26.2,34.4c0-3.5,0.4-6.9,1.1-10.3c0.9,1.1,2.2,1.9,3.8,1.6C29.3,28.5,28,31.6,26.2,34.4 M26.9,22.7
	c-1.2-2.6-0.9-6.5,1.9-7.8c0,0,0,0,0,0c0,0,0,0.1,0,0.1c-0.6,1-0.9,2.2-0.9,3.4c0,0.6,0.1,1.2,0.3,1.9c0.5,1.7,1.5,3.4,3,4.4
	c0,0.2,0.1,0.3,0.1,0.5c0,0,0,0,0,0c-1.6,0.4-2.9-0.4-3.8-1.6C27.2,23.3,27,23,26.9,22.7 M29.7,14.3c0.2-0.2,0.4-0.2,0.7-0.2
	c0.4,0.1,0.6,0.5,0.7,0.9c0,0.1,0,0.1,0.1,0.1c-0.5,0.5-1.4,0.6-1.9,1.1c0,0,0,0,0,0c-0.6,0.6-0.8,1.5-0.8,2.4
	c-0.1-1.4,0.3-2.9,1.2-4c0.1-0.1,0.1-0.2,0-0.3C29.6,14.4,29.6,14.3,29.7,14.3 M31.1,15.6c0.4-0.4,0.4-1.1,1.2-1.1
	c-0.1,0.2-0.1,0.5-0.1,0.8c-0.4,0.4-0.7,1.1-1,1.7c-1.1,2.2-0.6,4.8-0.1,7.1c-1.1-0.9-1.9-2.1-2.3-3.5c0,0,0,0,0,0
	c-0.1-0.6-0.1-1.3-0.1-2c0-0.5,0.2-1,0.4-1.5c0.1-0.2,0.2-0.3,0.3-0.5C29.8,15.9,30.5,16.1,31.1,15.6 M36.7,15.8
	C36.7,15.8,36.7,15.9,36.7,15.8c-0.1,0.2-0.2,0.4-0.2,0.5c-0.2,0-0.4,0-0.6-0.1c0,0,0,0-0.1,0c-0.2-0.4-0.5-0.8-0.9-1.1
	c-1-0.8-1.8-0.8-2.4-0.2C32.9,12.8,36.1,14.1,36.7,15.8 M36.5,16.7c0.1,0,0.1,0,0.1-0.1c0-0.2,0.1-0.3,0.2-0.5
	c0.4,0.1,0.6,0.4,0.8,0.7c0,0,0,0,0,0c0.1,1.6,0.3,3.3-0.2,4.8c-0.4,1-1,2.3-2.1,2.8c-0.6,0.3-1.2,0.4-1.9,0.5
	c0.9-1,1.5-2.7,1.9-3.6c0.6-1.4,1-3.3,0.5-4.8C36.1,16.6,36.3,16.6,36.5,16.7 M38.9,23.4c-1.2,2.4-3.9,3.5-6.3,2.2
	c0.1,0,0.2-0.1,0.3-0.1c1-0.1,2.1-0.1,2.9-0.7c0.8-0.6,1.4-1.5,1.8-2.4c0.9-2.1,0.5-4.2,0.4-6.4C39.6,18.1,40.1,21,38.9,23.4
	 M20.1,24.1c-0.2,0.2-0.4,0.3-0.6,0.4c-0.3,0.2-0.6,0.3-0.9,0.3c-2.5,0.3-2.2-3.2-2-5.1c0-0.1,0.1-0.2,0.1-0.2c0,0,0-0.1,0-0.1
	c0,0,0,0,0,0c1.6,0.1,3.5-0.1,4.3,1.6C21.5,22,20.9,23.3,20.1,24.1 M16.4,24c-1.4,0.5-1.9-1.3-1.9-2.4c0.2,0.1,0.5,0,0.8-0.1
	c0.3-0.2,0.6-0.5,0.8-0.8c-0.1,1.2,0,2.4,0.4,3.3C16.4,24,16.4,24,16.4,24 M14,20.8c-0.5-0.8-0.5-2.2,0.6-2.5c0.2,0,0.4-0.1,0.6,0
	c0.2,0.4,0.6,0.7,1,0.9c0,0.1,0,0.3,0,0.4c-0.2,0.6-0.6,1.4-1.2,1.6C14.6,21.3,14.2,21.1,14,20.8 M15.9,16.7
	c0.3-0.3,0.7-0.4,1.1-0.3c0.6,0.1,0.9,0.7,1,1.2c0,0,0,0,0,0c-0.6,0.2-1.2,0.6-1.7,1c0,0-0.1,0.1-0.1,0.1c-0.4-0.2-0.9-0.5-1-1
	C15.4,17.3,15.6,16.9,15.9,16.7 M19.3,17.8c1.3-0.1,1.7,0.7,1.4,1.9c-1-0.8-2.7-0.8-3.9-0.8C17.5,18.3,18.4,17.9,19.3,17.8
	 M30.4,7.8c-1-0.5-1.9-1.5-2-2.6C28,2.8,30,1.4,31.9,0.6c0,0,0,0,0.1,0c1.2,0.9,2.3,2.4,2.7,3.9C35,6.2,34.1,8.3,32,8.2
	c-0.3,0-0.7-0.1-1-0.2C30.8,8,30.6,7.9,30.4,7.8 M42.7,37.1c0.9-0.9,1.6-1.8,2.1-2.8c0,0,0.1,0,0.1,0c0.5-0.3,1.1-0.4,1.6-0.5
	c0.3,0.2,0.6,0.3,0.8,0.5c0.2,0.1,0.4,0.2,0.6,0.2c0,0,0,0,0,0c0.5,0.9-0.2,1.3-0.3,2.2c0,0.1,0,0.2,0,0.3c0,0-0.1,0-0.1,0
	c-1.3,0.9-2.8,1.1-4.2,0.6c-0.1,0-0.2-0.1-0.3-0.1c-0.1-0.1-0.2-0.2-0.3-0.3c0,0,0,0,0,0C42.8,37.1,42.7,37.1,42.7,37.1 M42.5,36.8
	c-0.9-1.5-0.5-3.8,0.1-5.3c0,0,0,0,0-0.1c0.8,0,1.6-0.1,2.3,0.3c0.1,0.1,0.2,0.1,0.2,0.2C45,33.9,43.9,35.4,42.5,36.8 M46.2,33.5
	c-0.4,0.1-0.8,0.2-1.2,0.3c0.2-0.5,0.3-1,0.4-1.5c0.2,0.4,0.4,0.8,0.7,1C46.1,33.4,46.2,33.4,46.2,33.5 M40.8,30
	c-0.8-1.3,1.2-1.9,2-1.7c0,0,0.1,0,0.1,0c1,0.2,2,0.8,3,1c0.8,0.2,1.5,0.4,2.2,0.7c1.1,0.5,1.9,1.5,1.7,2.8
	c-0.2,1.4-1.6,1.3-2.5,0.8c-1.5-0.7-1.6-2.6-3.3-2.8C42.9,30.7,41.6,31.2,40.8,30 M42.7,25.5c0.4-0.1,0.7-0.4,0.9-0.8
	c0.2-0.4,0.2-0.8,0.3-1.3c0-0.3,0-0.7,0.1-1c0.2-0.9,1.6-0.7,2.2-0.5c0.4,0.1,0.7,0.3,0.9,0.5c0.3,0.2,0.5,0.5,0.6,0.8
	c1,1.7,0.7,4.6,0.1,6v0c-0.1,0-0.1-0.1-0.2-0.1c-0.7-0.3-1.5-0.4-2.2-0.6c-0.9-0.3-1.8-0.8-2.8-0.9c0,0,0,0,0,0
	C42.1,27,41.5,25.9,42.7,25.5 M48.5,23.9c1.1-1.7,3,0.1,4.1,0.8c0.4,0.3,1,0.4,1.5,0.5c0.5,0.1,0.9,0.1,1.4,0.2
	c0.6,0.2,0.9,0.8,1,1.5c0,0.2,0,0.4,0,0.6c0,0,0,0.1,0,0.1c-0.4,2.2-4.8,2.6-6.4,3.2c-0.4-0.6-1.1-1-1.8-1.3c0,0,0,0,0,0
	C48.9,28,49.1,25.7,48.5,23.9C48.5,23.9,48.5,23.9,48.5,23.9 M56.8,28.1C56.8,28.1,56.9,28.1,56.8,28.1c0.9-0.2,1.4,1,1,1.7
	c-0.2,0.4-0.1,0.6,0.3,0.7c0.4,0.2,0.6,0.5,0.8,0.9c0.1,0.2,0.2,0.5,0.2,0.8c0,0.1,0,0.3,0,0.4c0,1.1-0.8,1.7-1.8,2
	c0,0-0.1,0-0.1,0.1c-0.5-0.5-1.1-0.8-1.6-1c0,0-0.1,0-0.1,0c-0.1-0.3-0.2-0.7-0.3-1c-0.1-0.4,0.1-0.8,0.3-1.2
	c0.1-0.1,0.1-0.3,0.2-0.4c0-0.1,0.1-0.2,0.1-0.3c0.2-0.6,0-1-0.6-1.3C56.1,29.1,56.6,28.7,56.8,28.1 M58.2,38.4
	c-0.6,0.5-1.2,0.2-1.8,0.1c-0.3-0.1-0.7-0.1-0.9,0.2c-0.3,0.4-0.1,1.4-1.1,1.1c-0.5-0.1-0.9-0.7-1.5-0.9c0.1-0.4,0.2-0.8,0.2-1.1
	c0-1.8-1.6-3.2-3-4.1c0.1-0.1,0.2-0.2,0.2-0.4c1,0,1.9,0.5,2.6,1.3c0.4,0.5,0.5,1.2,1,1.7c0.8,0.7,2.1-0.8,2.1-1.6
	c0-0.2,0-0.4-0.1-0.6C57.2,34.7,59.8,37.1,58.2,38.4 M50.3,31.3c0.5-0.2,1.1-0.4,1.8-0.6c0.4-0.1,0.8-0.2,1.2-0.4
	c0.6-0.2,1.1-0.4,1.7-0.6c0.7,0.1,0.8,0.5,0.7,1c-0.1,0.2-0.2,0.5-0.3,0.7c-0.1,0.2-0.2,0.4-0.3,0.6c-0.3,0.8,0.3,1.7,0.5,2.4
	c0.2,0.9-1.1,2.4-1.8,1.3c-0.3-0.4-0.4-0.9-0.7-1.3c-0.6-0.9-1.7-1.4-2.7-1.4C50.5,32.5,50.5,31.9,50.3,31.3 M50.7,39.8
	c-0.4-0.4-0.3-1.1-0.5-1.6c-0.2-0.4-0.8-0.6-1.2-0.7c-1.2-0.3-0.8-1.2-0.5-2c0.2-0.4,0.1-0.7,0-1.1c0.6,0,1.1-0.2,1.4-0.5
	c1.3,0.9,2.5,2,2.8,3.6C52.8,38.6,51.9,41.2,50.7,39.8 M44,38.2c1.3,0.2,2.6-0.1,3.8-0.9c0,0,0,0,0,0c0.2,0.3,0.6,0.5,0.9,0.7
	c0.6,0.2,1,0.4,1.2,1C48.2,39.1,45.8,39.1,44,38.2 M47.8,15c-1.5-0.4-2.3-2.6-2.3-4.2c0.1-1.9,1.4-3,2.9-3.9c0.1,0,0.1,0,0.1-0.1
	C49.3,6.4,50,6,50.7,5.7c0.4,2.7,1.9,7.8-1.3,9.1c-0.3,0.1-0.6,0.2-0.9,0.2C48.3,15,48,15,47.8,15 M43.7,7.6
	c0.6-2.7,2.8-3.6,5.3-3.8c-0.7,0.7-1.1,1.7-1,2.7c-1.6,0.9-2.9,2.1-3.1,4.2c-0.1,0.8,0,1.6,0.3,2.4C43.4,12.1,43.3,9.4,43.7,7.6
	 M50.4,2.9c1.2,0.2,1.3,1.4,0.7,2.2c0,0-0.1,0-0.1-0.1C51,5,50.9,5,50.7,5c-0.7,0.4-1.4,0.7-2.1,1.1c0-0.8,0.4-1.6,1-2.2
	c0.1-0.1,0.1-0.2,0.1-0.3c0-0.1,0-0.3-0.2-0.3c-0.4,0-0.8,0-1.2,0.1C49,3.1,49.7,2.8,50.4,2.9 M53.3,7c-0.3,0.8-0.8,1.5-1.5,1.9
	c-0.2-1.1-0.4-2.3-0.5-3.4c0,0,0.1,0,0.1-0.1c0.5-0.6,0.6-1.4,0.3-2C53.5,3.4,53.4,5.7,53.3,7 M56,10.2c-0.2-1.7-1-3.5-1.9-4.7
	c-0.1-0.2-0.3-0.1-0.4,0c0,0,0,0-0.1,0c0-0.6-0.2-1.2-0.4-1.6C55.6,4,56.7,8.1,56,10.2 M51,14.4C50.9,14.4,50.9,14.4,51,14.4
	c0.4-0.7,0.7-1.4,0.9-2.2c0.1-0.9,0.1-1.8,0-2.7c1.2-0.6,2-1.9,2.2-3.2c1.1,1.6,1.6,3.8,1.4,5.7C55.2,14,52.6,16,51,14.4 M62,21
	c0.4-0.2,0.9-0.3,1.4-0.4c-1.5,0.6-2.8,1.8-2.9,3.4c0,0.5,0.1,1,0.3,1.4c0.1,0.2,0.3,0.4,0.4,0.6c0.4,0.5,1,0.8,1.6,1
	c-0.6,0.1-1.3,0.1-1.9,0c-0.2-0.2-0.5-0.4-0.6-0.6c-0.1-0.1-0.2-0.2-0.3-0.3c-0.1-0.1-0.1-0.2-0.2-0.3C58.7,23.8,60.1,21.8,62,21
	 M64.8,20.6c1,0,1.9,0.2,2.8,0.5c0,0,0,0,0,0.1c0,0.1,0,0.1,0,0.2c-0.4,1.3-0.6,2.6-1.4,3.7c-0.5,0.7-1.3,1.3-2.2,1.7
	c-0.9,0.2-1.8-0.1-2.4-0.8c-0.2-0.2-0.3-0.4-0.4-0.6c-0.3-0.6-0.4-1.2-0.2-1.9C61.4,21.8,63.1,20.8,64.8,20.6 M65.5,27.6
	c-1.2,0.6-2.6,0.5-3.7-0.1c1.5,0,2.9-0.6,4.1-1.5c1.1-0.9,1.5-2.3,1.9-3.6C67.9,24.4,67.6,26.5,65.5,27.6 M65.5,33.2
	c0.8-1,2.3-1.6,3.5-0.9c1.7,1,1.3,2.8,1.2,4.5c0,0,0,0,0,0c0,0-0.1,0-0.1,0c-0.1,0-0.2,0-0.3,0.1c-1.9,0-5.5,0-4.9-2.5
	c0-0.2,0.1-0.4,0.2-0.5C65.2,33.6,65.3,33.4,65.5,33.2 M71.9,34.2c-0.2,0.9-0.6,1.8-1.3,2.4c0.1-1.2,0.3-2.9-0.5-3.9
	C71.3,32.5,72.1,32.9,71.9,34.2 M70.8,37c0.4-0.4,0.8-0.9,1.1-1.6c0,0,0,0,0,0c0.5,0.2,1.1,0.6,1.1,1.2c0.1,0.4-0.1,0.8-0.4,1.1
	c-0.3,0.3-0.7,0.5-1,0.4c-0.5-0.1-0.8-0.6-0.9-1.1C70.7,37.1,70.8,37,70.8,37 M68.5,39.2c-0.3-0.2-0.5-0.6-0.3-1
	c0.3-0.6,1.1-0.9,1.8-1.1c0.2,0,0.3,0,0.4,0c0.2,0.4,0.4,0.9,0.8,1.1c0,0.2,0,0.4-0.1,0.6C70.6,39.9,69.2,39.8,68.5,39.2 M65.5,36.6
	c0,0,0-0.1,0-0.1c0.9,0.5,2.1,0.7,3.3,0.7c-0.4,0.2-0.7,0.4-0.9,0.7c-0.2,0.3-0.2,0.5-0.2,0.7C66.5,38.6,64.8,37.9,65.5,36.6
	 M69.1,54.6c0.2-0.7-0.5-1.5-0.1-2.1c0.2-0.4,0.1-0.7-0.2-1c0.4-0.3,0.7-0.8,0.7-1.5c0-1.3-0.8-2.5-2-2.8c0-0.2,0-0.3,0-0.4
	c0-0.6,0.1-0.9-0.4-1.3c0.1-0.3,0.2-0.6,0.1-0.9c-0.1-0.2-0.2-0.5-0.4-0.6c-0.3-0.2-0.6-0.3-0.6-0.7c0-0.2-0.1-0.3-0.1-0.5
	c-0.2-0.6-0.8-1-1.4-1c0.1-0.4,0.1-0.8-0.1-1.2c-0.5-0.8-1.5-1.2-2.2-1.8c-0.6-0.5-1.1-1.1-1.8-0.5c-0.9,0.8-0.4,2.1-0.6,3.1
	c-0.3,0.5-0.5,1.1-0.7,1.3c-1.5,0.7-3,0.9-4.2,2.1c-1.3,1.3-1.8,3.1-2.1,4.9c-8.5,2.5-17,4.6-25.4,7.2c6-5.4,10.4-12.3,15.3-18.7
	c1.8,1.5,5,1.5,7.1,1.2c0,0,0,0,0,0c0,0.2,0.1,0.4,0.2,0.5c0.3,0.4,0.7,0.7,1.2,0.7c0.6-0.1,1-0.6,1.2-1.3c0.8,0.3,2.1,1.7,2.7,0.4
	c0-0.1,0-0.1,0-0.2c0.1-0.5,0.4-0.7,0.9-0.6c0.3,0.1,0.6,0.2,0.9,0.2c0.4,0,1.1-0.4,1.4-0.7c0.9-1.1,0.1-2.5-1-3.5
	c1.4-0.5,2-1.5,1.9-2.7c1.7,0.4,3.4,0.9,5.1,1.4c-0.5,1.3-0.1,2.1,0.5,2.6c0,0-0.1,0-0.1,0.1c-0.8,1.7,1.2,2.7,2.7,2.7
	c0.3,0.5,0.9,0.8,1.4,0.9c0.5,0.1,1.1,0.1,1.6-0.2c0.5-0.3,0.7-0.8,0.7-1.3c0,0,0.1,0,0.1,0c0.5,0.1,1.1-0.1,1.4-0.5
	c0.4-0.4,0.6-1,0.5-1.5c-0.2-0.7-0.8-1.1-1.4-1.4c0.2-0.5,0.3-1,0.2-1.4c-0.1-1.4-1.3-1.6-2.5-1.3c0,0,0,0,0,0
	c-0.2-0.2-0.5-0.4-0.9-0.5c-1.3-0.4-3.1,0.1-4,1.2c-1.8-0.6-3.7-1.1-5.6-1.5c-0.1-0.3-0.2-0.6-0.4-0.9c-0.2-0.3-0.9-0.3-0.7-0.8
	c0.2-0.4,0-0.7-0.1-1.1c-0.2-0.7-0.6-1-1.2-0.9c0-0.1,0-0.2,0-0.2c0.9-0.3,1.8-0.5,2.7-0.9c1.3,1.7,3.7,2.3,5.8,1.7
	c3.1-0.9,3.2-4.7,2.7-7.3c0,0,0-0.1,0-0.1c0,0,0,0,0-0.1c0-0.1,0-0.2-0.1-0.2c0-0.1-0.1-0.1-0.2-0.2c-2.2-0.8-4.9-0.8-7,0.4
	c-1.8,1-2.6,3.3-1.6,5.1c-0.8,0.3-1.5,0.5-2.3,0.7c0-0.1,0-0.2-0.1-0.2c-0.2-0.8-0.8-1.4-1.6-1.7c-0.6-0.2-1.3-0.2-1.9-0.3
	c-0.6-0.1-1.1-0.6-1.6-0.9c-1.2-0.8-2.7-1.4-3.6-0.2c-0.1-0.3-0.3-0.5-0.5-0.7c0.3-2.3,0.5-4.7,0.7-7c0.8,0,1.5-0.3,2-0.8
	c1.6,1.6,3.9,0.5,5-1.3c0.4-0.7,0.6-1.6,0.6-2.4c0.8-1.3,0.5-3.2,0.1-4.6c-0.4-1.4-1.4-3-3-2.9c0,0,0,0-0.1,0
	C52.7,3.2,52.2,3,51.5,3c0,0-0.1,0-0.1,0c-0.1-0.1-0.2-0.2-0.4-0.3c-1.2-0.6-2.5,0.1-3.6,0.8c0,0,0,0-0.1,0.1
	c-1.9,0.4-3.5,1.5-4,3.7c-0.5,2.2-0.4,5.4,2.1,6.2c0.5,0.9,1.2,1.7,2.2,1.9c-0.2,2.2-0.4,4.3-0.7,6.4c-0.4-0.3-0.9-0.5-1.4-0.7
	c-0.6-0.1-1.6-0.1-2,0.5c-0.5,0.7-0.4,1.4-0.5,2.2c-0.1,1.1-1.4,0.9-1.8,1.8c-0.3,0.6,0.2,1.4,0.5,2c-1.4,0.3-2.5,1.6-1.3,2.9
	c0.4,0.5,0.9,0.6,1.4,0.7c-0.7,2-0.9,4.4,0.4,6.2c0,0,0.1,0.1,0.1,0.1c-4.9,6.4-9.2,13.3-15.2,18.7c-0.1,0-0.2-0.1-0.3-0.1
	c-0.7-6.7-1.2-13.4-1.2-20.1c0.1,0,0.1-0.1,0.2-0.1c2.4-3.2,3.8-7.1,6-10.4c2.4,1.7,5.8,0.9,7.1-1.8c1.5-2.9,0.9-6.2-1.2-8.7
	c-0.1-0.1-0.4,0-0.4,0.1c0,0.3,0,0.6,0,0.9c-0.2-0.2-0.4-0.3-0.6-0.4c0,0,0,0,0,0c-0.6-1.8-3.7-3.1-4.6-1.6c-0.6-0.1-0.9,0-1.1,0.6
	c0,0,0,0,0,0.1c-0.1-0.5-0.4-0.9-0.9-1c-0.2,0-0.4,0-0.6,0.1c0.4-1.8,0.8-3.5,1.2-5.3c0.4,0.1,0.9,0.2,1.3,0.2
	c1.8-0.1,3.1-1.9,3-3.6c-0.2-2-1.5-3.9-3.1-5.1C32,0,31.9,0,31.8,0.1c-0.1,0-0.1,0-0.2,0C29.6,1,27,2.9,27.9,5.5
	c0.4,1.2,1.3,2.2,2.4,2.8c-0.4,2.1-0.9,4.1-1.4,6.1c-2.7,1.1-3.6,4.2-2.9,6.9c0.2,0.6,0.4,1.3,0.8,1.9c-0.8,3.8-1.4,7.5-1.3,11.4
	c0,0,0,0-0.1,0c-2.1-3.2-3.5-6.7-5.2-10.1c1-0.8,1.4-2.4,1.2-3.5c-0.1-0.4-0.2-0.7-0.4-1c0,0,0,0,0,0c0.4-1.1,0.3-2.3-1.1-2.6
	c-0.5-0.1-1,0-1.5,0.1c-0.2-0.7-0.6-1.3-1.2-1.5c-0.5-0.2-1.1,0-1.6,0.3c-0.4,0.3-0.7,0.8-0.7,1.4c0,0,0,0.1,0,0.1
	c-0.5,0-1,0.2-1.4,0.6c-0.3,0.4-0.4,1-0.3,1.5c0.1,0.5,0.4,1.1,0.8,1.5c-0.2,1.5,0.6,3.6,2.5,2.9c0,0,0.1,0,0.1-0.1
	c0.5,0.8,1.3,1.1,2.7,0.7c0.1,0,0.2-0.1,0.3-0.1c1.7,3.4,3,6.9,5.1,10.1c0,7.4,0.5,14.7,1.3,22c-9.7,14.5-16,31-26,45.2
	c-0.5,0.7,0.6,1.5,1.1,0.8c10-14.3,16.3-30.8,26-45.2c8.5-2.7,17.2-4.8,25.8-7.3c-0.3,1.4,1.4,2.6,2.4,3.2c0.8,0.5,1.7,0.9,2.6,1.1
	c0.6,0.1,1.2,0.3,1.8,0.2c0.8,0,1.6-0.4,2.4-0.3c0,0,0.1,0,0.1,0c0.5,0.3,0.9,0.8,1.4,1.2c0.5,0.8,1.2,2.3,2.1,1.8
	c0.5-0.3,0.9-0.7,1.3-1c0.3-0.3,0.7-0.6,0.9-0.9c0,0,0,0,0,0C68.6,55.5,69,55.2,69.1,54.6"/>
<rect x="0" class="st1" width="73.5" height="103.3"/>
</svg>
