<?xml version="1.0" encoding="utf-8"?>
<!-- Generator: Adobe Illustrator 25.2.0, SVG Export Plug-In . SVG Version: 6.00 Build 0)  -->
<svg version="1.1" id="Layer_1" xmlns="http://www.w3.org/2000/svg" xmlns:xlink="http://www.w3.org/1999/xlink" x="0px" y="0px"
	 viewBox="0 0 73.5 110.9" style="enable-background:new 0 0 73.5 110.9;" xml:space="preserve">
<style type="text/css">
	.st0{fill:#5E3C20;}
	.st1{fill:none;}
</style>
<path class="st0" d="M42,15.5C42,15.4,42,15.4,42,15.5c-0.3-0.3-0.4-0.5-0.6-0.6c0.9-0.6,1.2-1.7,1-2.7c0,0,0,0,0,0
	c0.9-0.2,1.7-0.6,2.2-1.4c0.2,0.3,0.4,0.4,0.7,0.5c0.3,0.1,0.6,0,0.8,0.2c0.5,0.4,0.1,1-0.2,1.4C45,14.3,43.6,15.4,42,15.5
	 M44.5,16.8c0.9,0.9-1.8,2.2-2.3,2.6c-1.7,1.2-3.3,1.5-4.8-0.2c-0.1-0.1-0.1-0.1-0.2-0.1c0.1-0.3,0.1-0.7,0.2-1
	c0-0.7-0.1-1.3-0.4-1.8c1,0.2,1.8-0.5,2.7-1c0.7-0.4,1.5-0.2,2,0.3c0.2,0.2,0.4,0.5,0.7,0.7C42.9,16.7,44,16.3,44.5,16.8 M36.8,19
	c-0.2,1-1.2,1.6-2.2,1.3c0,0,0,0-0.1,0c-0.4-0.1-0.8-0.5-1.1-0.9c0-0.1-0.1-0.1-0.1-0.2c-1.1-1.4-1.9-2.9-3.6-3.6
	c-1-0.4-2-0.2-2.7-1.3c-0.8-1.3,0.2-2.8,1.6-3.1c0,0,0,0,0,0c1.2,0.1,2.4,0.2,3.3,1.3c0,0,0,0,0,0c0,0,0,0,0,0c0,0,0,0,0,0
	c0.2,0.5,0.6,0.7,1,0.9c1.1,0.5,1.9,0.9,2.7,1.8C36.7,16.3,37.1,17.6,36.8,19 M27,10.4c-1-0.3-1.8-1.4-2.1-2.4
	c-0.4-1.4,0.6-2.4,1.9-2.8c3.3-1.1,6,3.9,5.3,6.7C30.6,10.7,28.7,11,27,10.4 M30.6,5.9c0.3-1.2,0.6-2.3,1.3-3.3
	c0.5-0.8,1.3-1.3,2.3-1.4c0.9-0.1,2.2,0.4,2,1.5c-0.1,0.6,0.3,1,0.8,1.4c0.6,0.5,1.1,0.4,0.9,1.5c-0.1,0.7-0.8,1.2-1.3,1.7
	c-0.4-0.7-1-1.3-2-1.2c-1.2,0.2-1.9,1.4-2.4,2.5c-0.4-1-0.9-1.9-1.6-2.6C30.5,6,30.5,6,30.6,5.9 M41,14.7
	C40.9,14.7,40.9,14.7,41,14.7c-1.4-0.2-2.7,1.6-4.2,1.1c0,0-0.1,0-0.1,0c-0.3-0.4-0.6-0.7-0.9-1.1c-0.4-0.5-0.9-0.9-1.5-1.2
	c-0.6-0.3-1.8-0.4-2-1.2c0.3-0.9,0.3-2,0-3.1c0.5-0.9,0.9-1.9,1.8-2.5c1.7-1.1,2.2,1.5,2.9,2.4c0.7,0.8,1.7,1,2.6,1.2
	c0.7,0.2,1.3,0.4,1.8,1C42.4,12.3,42.2,14,41,14.7 M38.1,4.4C38.9,3.5,40,3.8,40.5,5c0.2,0.4,0.8,0.6,1.2,0.8
	c0.8,0.4,1.2,1.5,1.2,2.3c0,1-1,1.7-1.8,2.1c-0.1,0-0.1,0.1-0.1,0.1c-1.2-0.6-2.9-0.5-3.7-1.7c-0.2-0.3-0.3-0.6-0.5-0.9c0,0,0,0,0,0
	c0.9-0.7,2-1.9,1.4-3.1C38.2,4.5,38.2,4.4,38.1,4.4 M42.9,6.6c1.2,0.3,1.9,1.3,1.9,2.6c0,1.5-1.1,2.5-2.5,2.8c0,0,0,0,0,0
	c-0.1-0.2-0.2-0.5-0.3-0.7c-0.2-0.3-0.4-0.5-0.7-0.7C43,9.7,43.6,8.1,42.9,6.6 M38.6,40.2c-0.1,0.6-0.3,1.2-0.5,1.8
	c-0.3,1-0.6,1.8-0.8,2.5c-0.7,0-1.4,0.4-2,0.8c0,0,0,0,0,0c-0.9-1.4-2.7-2.7-4.5-3.1c0,0,0,0,0,0c-0.8-1.8,1.7-2.4,2.9-3
	c0.5-0.2,0.8-0.6,1.2-1c0.3-0.3,0.6-0.7,0.9-1c0.3-0.2,0.6-0.3,1-0.2c0.4,0,0.8,0.2,1.1,0.4c0.1,0,0.1,0.1,0.2,0.1
	C38.8,37.9,38.8,39,38.6,40.2 M38.7,37.4C38.7,37.4,38.7,37.4,38.7,37.4c0.3-0.8,1.6-0.6,1.9,0c0.2,0.3,0.4,0.3,0.8,0.2
	c0.8-0.4,1.6-0.2,2.3,0.2c0.1,0.1,0.2,0.1,0.3,0.2c0.3,0.2,0.4,0.5,0.5,0.8c0.1,0.5,0.1,1-0.1,1.5c0,0,0,0.1,0,0.1
	c-0.2,0.1-0.3,0.1-0.5,0.2c-0.3,0.1-0.6,0.3-0.9,0.5c-0.1,0.1-0.2,0.1-0.2,0.2c0,0,0,0-0.1,0.1c-0.3-0.1-0.7-0.2-1-0.3
	c-0.5-0.2-0.8-0.8-1.1-1.3c-0.4-0.7-1-0.9-1.5-0.5C39.2,38.6,39.1,37.9,38.7,37.4 M47.9,41.8c0.1,0.8-0.4,1.1-0.9,1.6
	c-0.2,0.2-0.4,0.5-0.3,0.8c0.2,0.5,1.1,0.8,0.4,1.5c-0.4,0.4-1.1,0.4-1.5,0.7c-0.3-0.3-0.6-0.6-0.8-0.7c-1.4-0.8-3-0.5-4.5,0.1
	c-0.2,0.1-0.3,0.1-0.5,0.2c-0.1-0.1-0.1-0.3-0.2-0.4c0.1-0.2,0.3-0.4,0.5-0.5c0.5-0.5,1.2-0.8,2-0.9c0.6-0.1,1.3,0.2,1.9,0.1
	c1-0.3,0.5-2.2-0.2-2.6c0,0,0,0-0.1,0c-0.2-0.1-0.3-0.1-0.5-0.2c0.2-0.1,0.4-0.2,0.6-0.3C45.3,40.4,47.7,40,47.9,41.8 M45.1,48.7
	c-0.5,0.1-1.1-0.3-1.6-0.4c-0.5,0-0.9,0.3-1.2,0.6c-0.4,0.3-0.7,0.4-1,0.3c-0.4-0.1-0.6-0.5-0.9-0.9c-0.1-0.2-0.3-0.4-0.6-0.4
	c-0.1,0-0.2-0.1-0.4-0.1c0.1-0.1,0.2-0.2,0.2-0.4c0.2-0.4,0.2-0.7,0.1-1.1c0.2-0.1,0.3-0.1,0.5-0.2c1.3-0.5,2.6-0.8,4-0.2
	C45.2,46.2,46.8,48.4,45.1,48.7 M42.2,51.6c-0.2,0.3-0.5,0.5-0.7,0.8c-0.4,0.3-0.8,0.6-1.2,0.9c0.4-0.4,0.7-1,1-1.5
	c0.2-0.6,0.4-1.3,0.3-2.1c0,0,0,0,0,0c0,0,0,0,0,0c0.4,0,0.8-0.2,1-0.4c0.5-0.4,0.9-0.6,1.4-0.5C43.5,49.6,42.9,50.7,42.2,51.6
	 M44.8,61.4c-1.9-2.4-4-4.7-5.7-7.2c0.9-0.1,1.8-0.6,2.5-1.3C42.6,55.8,43.7,58.6,44.8,61.4 M38.8,53.7c-0.1,0-0.1,0-0.2,0
	c0-0.1-0.1-0.3-0.1-0.4c-0.2-1-0.6-2-1.1-2.8c0,0,0-0.1,0-0.1c0-0.6,0.2-1.1,0.5-1.6c0.3-0.1,0.6-0.3,0.8-0.4
	c0.2-0.1,0.3-0.2,0.5-0.4c0,0,0,0,0,0c0.4,0,0.6,0.2,0.8,0.4c0.3,0.3,0.4,0.7,0.8,1c0.1,0.1,0.2,0.1,0.3,0.1c0,0,0,0.1,0,0.1
	c0,0.5,0,1-0.2,1.5c-0.3,1-0.9,1.8-1.8,2.5C39.1,53.7,38.9,53.7,38.8,53.7C38.8,53.7,38.8,53.7,38.8,53.7 M38.3,53.7
	c-0.2,0-0.4,0-0.7-0.1c-1.5-0.4-2.8-1.7-3.7-2.8c0,0,0,0,0,0c0.4-0.7,0.8-1.4,1.5-1.7c0.1,0,0.2-0.1,0.3-0.1c1.2,0.9,1.8,2,2.2,3.3
	C38,52.8,38.2,53.2,38.3,53.7 M37.5,49c-0.2,0.4-0.3,0.7-0.3,1.1c-0.3-0.4-0.6-0.8-1-1.1c0.4,0,0.9,0.1,1.2,0
	C37.4,49,37.5,49,37.5,49 M37.9,44.5c0.1-0.5,0.3-1.1,0.5-1.7c0.2-0.6,0.4-1.1,0.5-1.7c0.1-0.4,0.2-0.8,0.2-1.2
	c0.9-1,1.4,0.4,1.9,1.1c0.4,0.5,1.2,0.6,1.8,0.8c0.1,0,0.3,0.1,0.4,0.1c0.1,0,0.2,0.1,0.3,0.2c0.6,0.6,0.9,2-0.2,2
	c-0.5,0-0.9-0.1-1.4-0.1c-0.8,0-1.5,0.4-2,0.9c-0.2,0.2-0.4,0.4-0.6,0.6c-0.1-0.1-0.2-0.2-0.3-0.3C38.7,44.8,38.3,44.6,37.9,44.5
	 M31.8,51.5c-1.5,0-0.9-2-0.3-2.6c0,0,0,0,0-0.1c0.8-0.7,1.7-1.2,2.4-1.9c0.6-0.5,1.1-1,1.8-1.5c1-0.7,2.2-0.7,3.2,0.1
	c0.2,0.2,0.3,0.3,0.4,0.5c0,0.1,0.1,0.2,0.1,0.3c0.1,0.7-0.5,1.3-1.1,1.7c-1.3,0.8-3-0.1-4,1.2C33.5,50.2,33.2,51.6,31.8,51.5
	 M29.1,47.6c0.1-0.4,0-0.8-0.2-1.1c-0.2-0.4-0.6-0.6-0.9-0.9c-0.3-0.2-0.5-0.4-0.8-0.6c-0.6-0.7,0.3-1.7,0.8-2.1
	c0.3-0.3,0.7-0.4,1.1-0.5c0.5-0.1,1-0.1,1.6,0.1c1.2,0.3,2.4,1.1,3.3,1.9c0.1,0.1,0.3,0.3,0.4,0.4c0.2,0.2,0.4,0.5,0.6,0.7l0,0
	c-0.1,0-0.1,0.1-0.2,0.1c-0.6,0.4-1.1,1-1.6,1.5c-0.7,0.6-1.6,1.1-2.2,1.8c0,0,0,0,0,0C30,48.9,28.8,48.9,29.1,47.6 M44.7,24.9
	c0.2-0.4,0.4-0.8,0.7-1.2c-0.6,1.5-0.6,3.1,0.4,4.3c0.5,0.6,1.2,0.8,1.9,0.8c0.3,0,0.6,0,0.9-0.1c0.3-0.1,0.6-0.2,0.9-0.4
	c-0.4,0.5-0.8,1-1.3,1.3c0,0-0.1,0-0.1,0c-0.3,0-0.6,0-0.8,0c-0.1,0-0.2,0-0.3,0C44.6,29.4,44,26.8,44.7,24.9 M46.3,22.6
	c0.7-0.7,1.4-1.2,2.2-1.6c0,0,0,0,0.1,0.1c0.1,0,0.1,0.1,0.2,0.1c0.7,1.1,1.4,2.2,1.7,3.5c0.2,0.9,0,1.8-0.3,2.7
	c-0.3,0.6-0.8,0.9-1.4,1.1c-0.2,0.1-0.4,0.1-0.7,0.1c-0.9,0-1.8-0.4-2.2-1.2C44.9,25.9,45.3,24,46.3,22.6 M49.5,21.8
	c1.6,1.2,2.8,2.9,2.2,5.1c-0.4,1.2-1.4,2.1-2.6,2.6c1-1,1.6-2.5,1.7-3.9C50.9,24.1,50.2,22.9,49.5,21.8 M11.5,41.7
	c-0.9,0.4-2,0.6-2.9,0.5c-2.1-0.1-3.2-1.6-4.1-3.3c0-0.1,0-0.1-0.1-0.2c-0.4-0.8-0.7-1.6-1.1-2.3c3-0.3,8.4-1.7,9.7,1.7
	c0.5,1.3,0,2.3-0.8,2.9C12.1,41.3,11.8,41.5,11.5,41.7 M5.2,44c-2.9-0.7-3.8-3.2-3.9-5.8c0.7,0.8,1.8,1.2,2.8,1.1
	c0.9,1.7,2.2,3.2,4.4,3.5c0.8,0.1,1.7,0,2.6-0.3C10.1,44.6,7.2,44.5,5.2,44 M0.4,36.7C0.7,35.4,2,35.3,2.8,36c0,0,0,0.1-0.1,0.1
	c-0.1,0.1-0.1,0.2-0.1,0.3c0.4,0.8,0.7,1.6,1.1,2.3c-0.9,0-1.7-0.5-2.3-1.2c-0.1-0.1-0.2-0.1-0.3-0.1c-0.1,0-0.3,0-0.3,0.2
	c0,0.4,0,0.8,0,1.3C0.6,38.2,0.3,37.4,0.4,36.7 M5,33.8c0.8,0.3,1.5,0.9,2,1.7c-1.2,0.1-2.5,0.3-3.7,0.4c0-0.1,0-0.1-0.1-0.1
	C2.6,35.2,1.7,35,1,35.3C1.1,33.4,3.5,33.5,5,33.8 M8.5,30.9c-1.8,0.1-3.7,0.9-5.1,1.8c-0.2,0.1-0.1,0.3,0,0.4c0,0,0,0,0,0.1
	c-0.6,0-1.3,0.1-1.8,0.4C1.8,31.1,6.2,30.1,8.5,30.9 M10.5,31.6c2,0.3,4.1,3.2,2.3,4.9c0,0,0,0,0,0.1c-0.6-0.5-1.5-0.9-2.3-1.1
	c-0.9-0.2-1.9-0.2-2.9-0.1c-0.6-1.3-1.9-2.2-3.3-2.4C6.1,31.8,8.4,31.3,10.5,31.6 M25.5,40.3c-0.1,0.4-0.3,0.9-0.6,1.2
	c-1.2,1.6-3.4,1-4.4-0.4c-0.9-1.2-1.3-2.9-1.2-4.4c0,0,0,0,0.1,0c1.8-0.9,4-1.5,5.6,0.1c0.7,0.7,0.9,1.7,0.8,2.7
	C25.6,39.8,25.5,40.1,25.5,40.3 M12.3,20.1C12.3,20.1,12.3,20.1,12.3,20.1c-2,1.5-3.4-1.6-4.2-3.4c0-0.1,0-0.2,0-0.3
	c0,0,0-0.1-0.1-0.1c0,0,0,0,0,0c1.4-0.7,2.9-1.8,4.4-0.7c1.2,0.9,1.1,2.8,0.3,3.9C12.6,19.8,12.5,19.9,12.3,20.1 M10,20.5
	c-0.9,1.1-2.2-0.1-2.7-1.1c0.2-0.1,0.4-0.2,0.6-0.5c0.2-0.3,0.3-0.7,0.3-1.1C8.7,18.8,9.3,19.9,10,20.5C10.1,20.4,10.1,20.5,10,20.5
	 M6.5,18.9c-0.8-0.4-1.5-1.6-0.7-2.4c0.1-0.1,0.3-0.2,0.5-0.3c0.4,0.2,0.9,0.3,1.3,0.2c0.1,0.1,0.1,0.2,0.2,0.4
	c0.1,0.6,0.2,1.5-0.2,2C7.2,19.1,6.8,19.1,6.5,18.9 M6.1,14.5c0.1-0.4,0.4-0.7,0.8-0.8c0.6-0.2,1.1,0.2,1.5,0.6c0,0,0,0,0,0
	c-0.4,0.5-0.8,1.1-0.9,1.6c0,0,0,0.1,0,0.1c-0.5,0-1,0-1.3-0.4C5.9,15.3,6,14.9,6.1,14.5 M9.5,13.9c1.1-0.8,1.8-0.2,2.1,0.9
	c-1.2-0.2-2.6,0.6-3.7,1.2C8.2,15.1,8.8,14.4,9.5,13.9 M19.7,9c-0.1,0.1-0.3,0.1-0.4,0.2c-0.3,0.1-0.5,0.2-0.8,0.2
	c-2.4,0.4-3.7-1.8-3.6-3.9c0-0.5,0.1-0.9,0.3-1.4c-0.1,1.6,0.4,3.2,1.7,4c0.6,0.3,1.2,0.4,1.9,0.3c0.2-0.1,0.5-0.1,0.7-0.2
	c0.4-0.2,0.8-0.5,1.1-0.8c-0.1,0.5-0.4,1-0.7,1.4C19.8,8.8,19.8,8.9,19.7,9 M17.4,0.6C17.4,0.7,17.4,0.7,17.4,0.6
	c0.1,0,0.2,0.1,0.3,0.1c1,0.9,2,1.7,2.6,2.8c0.4,0.8,0.6,1.7,0.5,2.7C20.6,7,20,7.6,19.3,7.9c-0.2,0.1-0.5,0.2-0.7,0.2
	c-0.7,0.1-1.5-0.1-2-0.6c-1.2-1.1-1.3-3.1-0.8-4.6C16.2,2,16.7,1.3,17.4,0.6 M22.2,5.2c0,1.3-0.7,2.4-1.7,3.2
	c0.7-1.3,0.8-2.8,0.4-4.2c-0.3-1.3-1.3-2.3-2.3-3.2C20.5,1.8,22.2,3,22.2,5.2 M46.2,13.2c0.4-0.5,0.6-1,0.3-1.6
	c-0.4-0.7-1.3-0.2-1.7-1c0.2-0.4,0.3-0.9,0.4-1.4c0-1.5-1-2.7-2.4-2.9c-0.1-0.2-0.3-0.4-0.4-0.5c-0.4-0.4-1.3-0.5-1.4-1.1
	c-0.2-0.4-0.3-0.7-0.7-1c-0.8-0.6-1.7-0.3-2.3,0.4c-0.2-0.1-0.5-0.2-0.6-0.3c-0.9-0.5-0.2-1.4-0.7-2c-1.1-1.2-2.7-1.2-3.9-0.4
	c-1.4,0.9-2,2.8-2.3,4.4c-1-0.9-2.2-1.3-3.6-1c-2.1,0.5-2.8,2.7-1.7,4.5c0.6,0.9,1.5,1.5,2.5,1.8c0.1,0,0.2,0.1,0.4,0.1
	c-1.5,0.8-1.9,2.9-0.5,4.2c0.3,0.3,0.8,0.4,1.2,0.5c0.9,0.2,1.7,0.5,2.5,1.1c1,0.8,1.6,2.1,2.5,3.1c0.1,0.1,0.1,0.1,0.2,0.2
	c0.4,3.3,1,6.6,1.7,9.8c-4.6-7.1-10.1-13.6-14.9-20.5c1.3-0.8,2.3-2.2,2.5-3.7c0.5-3.1-2.7-4.9-5.2-5.5c0,0-0.1,0-0.1,0c0,0,0,0,0,0
	C17.4,0,17.3,0,17.3,0c-0.1,0-0.2,0-0.2,0.1c-1.6,1.6-2.8,4-2.7,6.3c0.1,2,1.9,3.8,4,3.6c0.5,0,0.9-0.2,1.4-0.3
	c4.9,7.1,10.5,13.7,15.2,21c-4.1-1.4-8-3-11.9-4.9c-3.4-1.7-6.9-3.5-9.9-5.9c1-1.2,0.7-3.3-0.2-4.4c-0.3-0.3-0.5-0.5-0.8-0.6
	c0,0,0,0,0,0c-0.2-1.2-0.9-2.1-2.2-1.6C9.5,13.3,9,13.6,8.7,14c-0.5-0.5-1.1-0.8-1.8-0.7c-0.5,0.1-0.9,0.6-1.2,1
	c-0.2,0.5-0.2,1.1,0.1,1.5c0,0,0,0,0.1,0.1c-0.4,0.3-0.8,0.7-0.9,1.2c-0.1,0.5,0.1,1,0.5,1.5c0.3,0.4,0.9,0.8,1.4,0.8
	c0.6,1.3,2.3,2.7,3.5,1.3c0,0,0-0.1,0-0.1c0.6,0.3,1.4,0.3,2.2-0.3c3,2.5,6.6,4.4,10.1,6.1c4.2,2,8.5,3.8,12.9,5.3
	c0.3,1.6,0.7,3.1,1.1,4.7c-0.5,0-1,0.2-1.4,0.5c-0.5,0.4-0.8,0.9-1.2,1.4c-0.4,0.4-1.1,0.6-1.6,0.8c-1.3,0.5-2.6,1.4-2.1,2.9
	c-0.2,0-0.4,0-0.6,0c-1.2-0.7-2.4-1.4-3.6-2.1c0.1-1.1-0.1-2.2-0.7-3.1c-1.4-2.2-4.4-1.5-6.4-0.5c-0.1,0-0.1,0.1-0.1,0.1
	c-0.1,0-0.2,0.1-0.3,0.2c-0.1,1.9,0.5,4,1.9,5.5c1.2,1.2,3.3,1.3,4.5,0c0.4-0.4,0.7-0.9,0.9-1.5c0.9,0.5,1.8,1,2.7,1.5
	c-0.5,0.2-0.9,0.4-1.3,0.8c-0.4,0.4-0.9,1.3-0.7,1.9c0.3,0.7,1,1.1,1.6,1.5c0.8,0.7,0,1.6,0.5,2.4c0.4,0.6,1.3,0.6,1.9,0.6
	c-0.5,1.2,0,2.8,1.7,2.6c0.6-0.1,1-0.4,1.3-0.8c1.1,1.4,2.6,2.7,4.4,2.9c1.8,2.8,4,5.2,6.2,7.8c-11.7-4.2-21.6-12.6-31.2-20.5
	c0.5-0.5,0.9-1.1,1-1.8c0.2-1.1-0.1-2-0.7-2.7c1.8-1.7,0.7-4.2-1.2-5.4c-0.8-0.5-1.7-0.7-2.6-0.7C8,29.9,6,30.2,4.5,30.6
	c-1.5,0.4-3.3,1.4-3.2,3.2c0,0,0,0.1,0,0.1c-0.4,0.3-0.7,0.8-0.7,1.6c0,0,0,0.1,0,0.1c-0.1,0.1-0.2,0.3-0.3,0.4
	c-0.7,1.3,0.1,2.7,0.7,3.9c0,0,0,0.1,0.1,0.1c0.4,2.1,1.5,3.8,3.8,4.5c2.3,0.7,5.8,0.6,6.8-2.1c0.1-0.1,0.3-0.1,0.4-0.2
	c10.2,8.3,20.7,17.2,33.3,21.3c0.1,0,13.1,33.1,26.8,47.3c0.4,0.4,1.6-0.6,1.2-1.1c-11.3-12.5-19-28.4-25.7-43.8
	c-2-4.5-3.8-9.1-5.4-13.8c0.9-1,1.6-2.3,2.1-3.2c0,0,0,0,0,0c0.2,0.1,0.4,0.1,0.5,0.1c0.5,0,1-0.2,1.2-0.7c0.3-0.5,0-1.1-0.4-1.7
	c0.7-0.5,2.5-0.8,1.8-2c0,0-0.1-0.1-0.1-0.1c-0.4-0.4-0.4-0.7,0-1c0.2-0.2,0.4-0.4,0.6-0.6c0.3-0.3,0.3-1.1,0.2-1.5
	c-0.4-1.3-2-1.4-3.4-1c0.2-0.8,0.1-1.4-0.2-1.9c0.9-2.8,1.8-5.5,3.1-8.1c1.9-0.1,3.6-1.2,4.5-2.9c1.4-2.8-1.1-5.4-3.3-6.8
	c0,0-0.1,0-0.1,0c0,0,0,0,0,0c0-0.1-0.1-0.1-0.2-0.1c-0.1,0-0.2-0.1-0.2,0c-2.1,1.1-3.9,2.9-4.5,5.2c-0.5,2,0.7,4.2,2.7,4.6
	c0.1,0,0.3,0,0.4,0.1c-1.2,2.4-2.1,4.9-2.9,7.4c-0.5-0.5-1.3-0.7-2.2-0.8c-0.3,0-0.7,0.5-1,0.1c-0.2-0.3-0.6-0.4-1-0.5
	c-0.7-0.2-1.2-0.1-1.4,0.5c-0.2-0.2-0.5-0.4-0.8-0.5c-1.3-5.2-2.4-10.5-3.1-15.9c0.4,0.1,0.9,0.1,1.3-0.1c0.6-0.2,0.9-0.6,1.2-1.2
	c1.2,1.3,2.6,1.8,4.3,0.9c0.8-0.4,1.5-0.9,2.2-1.4c0.6-0.4,1.2-0.8,1.5-1.4c0.2-0.4,0.1-0.8-0.2-1.2c-0.2-0.2-0.5-0.3-0.7-0.3
	c-0.3,0-0.6,0-0.8,0c-0.4,0-0.7-0.2-0.9-0.4C43.9,15.6,45.2,14.4,46.2,13.2"/>
<rect class="st1" width="73.5" height="110.9"/>
</svg>
