<?xml version="1.0" encoding="utf-8"?>
<!-- Generator: Adobe Illustrator 25.2.0, SVG Export Plug-In . SVG Version: 6.00 Build 0)  -->
<svg version="1.1" id="Layer_1" xmlns="http://www.w3.org/2000/svg" xmlns:xlink="http://www.w3.org/1999/xlink" x="0px" y="0px"
	 viewBox="0 0 300 233" style="enable-background:new 0 0 300 233;" xml:space="preserve">
<style type="text/css">
	.st0{fill:#FF5E3E;}
</style>
<path class="st0" d="M63.8,175.9h1.9c2,0,3,1,3,3.8s-1,3.8-3,3.8h-1.9C63.8,183.5,63.8,175.9,63.8,175.9z M65.7,184.5
	c3.2,0,4.3-1.8,4.3-4.8s-1.2-4.8-4.3-4.8h-3.2v9.7L65.7,184.5L65.7,184.5z M51.1,184.5v-6v-2.2l0,0c0.3,0.7,0.6,1.3,1,2l3.3,6.3h1.8
	v-9.7H56v6v2.2l0,0c-0.3-0.7-0.6-1.3-1-2l-3.3-6.3h-1.8v9.7H51.1z M40.1,179.3c0.4-1.1,0.7-2.2,1.1-3.4l0,0c0.4,1.2,0.7,2.3,1.1,3.4
	l0.5,1.6h-3.2L40.1,179.3z M45.3,184.5l-3.2-9.7h-1.8l-3.2,9.7h1.3l0.8-2.5h3.9l0.8,2.5H45.3z"/>
<path class="st0" d="M271.2,173.7c-0.2,2.7-1.3,5.8-3.3,9.1c-2.6,4.4-5.5,7.4-8.4,9.1c-0.4,0.2-0.8,0.4-1.1,0.5
	c-0.3,0.1-0.6,0.1-0.7,0.2c-0.3,0.1-0.5,0.1-0.7,0.1c-0.3,0-0.5-0.2-0.8-0.3c-0.2-0.2-0.4-0.4-0.5-0.7l-0.1-0.3
	c-0.1-0.5-0.1-1.2,0.1-2.1c0.2-1,0.6-2.1,1.1-3.2c1.9-4,6-8.8,12.1-14.5c0.5-0.4,0.9-0.8,1.2-1c0.3-0.3,0.5-0.5,0.7-0.6
	s0.3-0.2,0.4-0.2l0.1-0.1c0,0,0,0,0.1,0c0,0.1,0.1,0.2,0.1,0.4c0.1,0.3,0.1,0.7,0.1,1.2C271.4,172,271.3,172.8,271.2,173.7
	 M174.5,173.8c-0.1,0.2-0.3,0.5-0.5,0.8c-0.2,0.2-0.5,0.6-0.9,1.2c-0.4,0.6-0.9,1.3-1.4,2s-0.9,1.4-1.3,1.9c-0.4,0.6-0.7,1-0.8,1.1
	c-1,1.3-1.9,2.2-2.7,2.7c-0.1,0.1-0.3,0.1-0.4,0.1c-0.1,0-0.2,0-0.2,0v-0.1c0-0.1,0-0.4,0-0.8c0.1-1.7,0.8-3.5,1.9-5.4
	c1.5-2.2,3-3.7,4.6-4.3l0.4-0.1c0.7-0.1,1.1-0.1,1.2,0.2c0,0.1,0.1,0.1,0.1,0.2C174.5,173.5,174.5,173.6,174.5,173.8 M244.3,159.2
	c0.2-0.4,0.4-0.8,0.7-1.3s0.6-1,1-1.4c0.9-1.2,1.9-2.2,2.9-3c0.4-0.3,0.9-0.6,1.3-0.8c0.4-0.2,0.7-0.4,1-0.4c0.2,0,0.3,0,0.3,0.1
	v0.1c-0.1,0.7-0.8,1.7-2,3c-1.2,1.2-2.6,2.5-4.4,3.7c-0.3,0.2-0.5,0.3-0.7,0.5c-0.2,0.1-0.3,0.2-0.4,0.2
	C244.1,159.6,244.2,159.5,244.3,159.2 M274.8,165.8c-0.2-0.4-0.8-0.5-1.2-0.2l-1.3,1.1l-0.1-0.3c-0.3-0.8-0.7-1.5-1.1-2.1
	s-1.1-1.5-2-2.5s-1.5-1.8-1.8-2.4c-0.3-0.6-0.4-1.1-0.5-1.6c-0.1-0.4-0.1-0.8-0.2-1.2c-0.1-2,0.6-4.4,2.1-7.3c0.6-1,1.3-2.1,2.2-3.2
	c0.9-1.1,1.7-2,2.5-2.6c0.2-0.2,0.4-0.3,0.5-0.4c0.1,0,0.1-0.1,0.2-0.1s0.2,0,0.2,0c0.1,0,0.2,0,0.3,0c0.2,0,0.4-0.2,0.6-0.4
	s0.3-0.4,0.2-0.7v-0.1c-0.2-0.4-0.6-0.5-1.1-0.4h-0.1c-0.7,0.2-1.5,0.8-2.6,1.8s-2,2.1-3,3.4c-1.2,1.6-2.1,3.2-2.8,4.9
	c-0.7,1.5-1,3-1.1,4.4c-0.2,0.1-0.4,0.3-0.6,0.5c-0.7,0.6-1.5,1.2-2.4,2c-2.2,1.9-3.9,3.3-5.3,4.4c-1.4,1.1-2.6,1.9-3.6,2.5
	c-1.5,0.9-2.9,1.6-4.1,2l-0.5,0.1c-0.4,0.1-0.8,0.1-1.2,0.2c-0.7,0.1-1.2,0.1-1.6,0c-1.5-0.2-2.4-1-2.6-2.3c-0.1-0.6-0.1-1.3,0-2
	c0.1-0.6,0.2-1,0.3-1.3c0.1-0.2,0.5-0.5,0.9-0.7c1.5-0.9,3-1.9,4.6-3.3c1.5-1.3,2.7-2.6,3.6-3.8c0.8-1.2,1.2-2.1,1-2.7
	c-0.1-0.5-0.5-0.8-1.2-0.9c-0.3,0-0.6,0-1,0.1c-0.8,0.2-1.7,0.6-2.7,1.3c-1.4,1-2.8,2.4-4.1,4.1c-0.4,0.5-0.8,1.1-1.2,1.9
	c-0.4,0.8-0.8,1.4-1,2.1c-0.2,0.4-0.3,0.7-0.4,0.8c-0.1,0.2-0.2,0.3-0.3,0.3c-0.3,0.2-0.5,0.4-0.6,0.6c-0.1,0.2-0.1,0.3-0.1,0.4
	c0,0.1,0.1,0.2,0.3,0.3c0.1,0,0.1,0.1,0.2,0.2l0,0c-0.6,1.1-1.6,2.8-3,5.3c-1.9,3.3-3.2,5.3-4.1,6.1c-0.9,0.8-1.7,1.2-2.4,1.4
	c-0.5,0.1-1.1,0.1-1.7,0c-0.9-0.1-1.4-0.4-1.7-1.1c-0.3-0.7-0.5-1.3-0.6-1.9c-0.2-1-0.4-2.2-0.5-3.6c-0.1-1.3-0.2-2.2-0.2-2.6
	c0-0.4-0.1-0.7-0.1-0.9c-0.1-0.2-0.1-0.4-0.2-0.6c-0.3-1.1-0.9-1.7-1.8-1.6c-0.1,0-0.2,0-0.3,0c-0.6,0.1-1.4,0.7-2.4,1.6
	c-1.1,1.1-2.6,2.9-4.7,5.6c-1.3,1.7-2.3,2.9-2.9,3.5c-0.6,0.6-1,1-1.2,1l0,0c-0.1,0-0.2-0.1-0.3-0.5c0-0.2-0.1-0.4-0.1-0.6
	c-0.1-0.7-0.1-2-0.1-3.9c0-0.8-0.1-1.6-0.1-2.3c-0.1-0.7-0.1-1.3-0.2-1.6l-0.1-0.3c-0.3-1-0.9-1.4-1.7-1.2c-0.5,0.1-1,0.4-1.6,0.9
	c-2.4,2.3-5.4,6.9-8.8,13.8c-0.3,0.5-0.5,1-0.7,1.4s-0.3,0.6-0.3,0.6c0-0.1,0-0.3,0-0.8s0.1-1.2,0.2-2c0.1-0.8,0.3-1.6,0.4-2.5
	c0.2-0.9,0.3-1.6,0.5-2.3c0.4-1.6,0.9-3.6,1.6-5.8c0.7-2.2,1.4-4.1,2-5.7c0.1-0.3,0.3-0.6,0.4-0.8c0.1-0.2,0.2-0.3,0.2-0.4
	c0.1-0.1,0.1-0.2,0.3-0.2c0.1,0,0.2-0.1,0.3-0.2c0.1-0.1,0.2-0.2,0.2-0.2c0.1-0.2,0.2-0.4,0.1-0.5c0-0.1,0-0.1-0.1-0.2
	c-0.1-0.2-0.3-0.4-0.5-0.5s-0.3-0.1-0.5,0c-0.3,0.1-0.7,0.3-1,0.8c-0.5,0.7-1,1.9-1.7,3.8c-0.8,2.2-1.5,4.3-2.1,6.3
	c-0.7,0.8-1.5,1.7-2.3,2.7c-1.6,2-3.3,4-5.2,6s-3.8,3.5-5.9,4.5c-0.6,0.2-1.1,0.4-1.6,0.5c-2,0.4-3.3-0.2-4-1.9
	c-0.2-0.5-0.3-0.9-0.4-1.3c-0.1-0.4-0.1-1-0.1-1.7s0.1-1.7,0.1-3c0.1-1.1,0.1-1.9,0.2-2.5c0-0.6,0-1,0-1.1c0-0.2,0-0.3-0.1-0.5v-0.1
	c-0.4-0.9-1-1.3-1.9-1.1c-0.3,0.1-0.7,0.3-1.2,0.6s-0.9,0.7-1.2,1.1l-0.5,0.6l-0.4-0.3c-0.7-0.6-1.5-0.7-2.6-0.5
	c-0.2,0-0.4,0.1-0.7,0.2c-1.9,0.7-3.5,2.2-5,4.3s-2.3,4.3-2.5,6.5c0,0.4,0,0.6,0,0.8s0,0.4,0.1,0.5c0,0.1,0.1,0.3,0.2,0.4
	c0.1,0.2,0.2,0.4,0.3,0.5s0.2,0.2,0.4,0.3c0.1,0.1,0.3,0.1,0.4,0.2c0.1,0.1,0.2,0.1,0.3,0.1c0.2,0,0.4,0,0.6-0.1l0.4-0.1
	c0.4-0.2,0.8-0.3,1.1-0.5c0.6-0.4,1.3-1,2-1.8s1.6-2.1,2.8-3.8l1.5-2.1l0.3,0.2c0.1,0.1,0.3,0.1,0.3,0.1c0.1,0,0.2,0,0.3,0
	c0.2,0,0.4-0.2,0.5-0.5s0.2-0.7,0.3-1.3c0-0.4,0.1-0.8,0.2-1c0.1-0.2,0.2-0.4,0.4-0.6c0.2-0.4,0.5-0.7,0.9-1.1
	c0.3-0.4,0.6-0.7,0.9-0.9c0.1-0.1,0.2-0.2,0.3-0.2l0.1-0.1h0.1c0,0,0.1,0.1,0.1,0.2c0,0.1,0,0.4,0,0.9s-0.1,1.1-0.2,1.8
	c-0.3,2.5-0.3,4.5,0,6.1c0.5,2.4,1.7,3.8,3.7,4.2c0.7,0.2,1.6,0.3,2.4,0.1c2.1-0.5,4.3-1.9,6.7-4.3c2.4-2.4,4.5-4.7,6.3-7
	c0.3-0.4,0.7-0.8,1-1.1c-0.7,3-1.2,5.7-1.3,8.1c-0.1,1.2-0.1,2,0.1,2.5c0.1,0.5,0.3,0.8,0.7,0.8c0.2,0.1,0.3,0.1,0.5,0
	c0.3-0.1,0.5-0.2,0.8-0.5c0.1-0.1,0.3-0.3,0.5-0.6s0.4-0.8,0.8-1.5c0.3-0.7,0.8-1.6,1.4-2.8c3-6,5.5-10.1,7.7-12.2l0.6-0.5l0.1,0.3
	v0.2c0.2,0.8,0.3,2.4,0.3,4.8c0,1.5,0.1,2.4,0.1,2.8c0.1,0.4,0.1,0.7,0.1,0.9c0.1,0.4,0.2,0.7,0.4,0.9c0.4,0.6,1,0.8,1.7,0.6
	c0.3-0.1,0.6-0.2,1-0.4c0.5-0.3,1-0.8,1.6-1.4c0.6-0.7,1.6-1.9,2.9-3.6c3.1-4,5-6,5.6-6.1c0.1,0,0.1,0,0.1,0
	c0.1,0.1,0.2,0.4,0.3,0.9c0.1,0.6,0.3,1.6,0.4,2.8c0.2,1.9,0.3,3.4,0.5,4.3s0.4,1.7,0.7,2.3c0.5,0.9,1.1,1.5,2,1.8
	c0.3,0.1,0.6,0.2,0.8,0.2s0.6,0,1,0c0.3,0,0.7-0.1,1.1-0.1c0.8-0.2,1.7-0.5,2.6-1.1c1.3-0.9,2.7-2.8,4.4-5.6
	c1.1-1.9,1.9-3.4,2.6-4.6c0,0.1,0,0.2,0,0.3c0.2,0.8,0.4,1.4,0.8,2c0.3,0.4,0.8,0.7,1.4,1c0.6,0.3,1.2,0.4,1.9,0.5
	c0.1,0,0.3,0,0.5,0c0.3,0,0.5,0,0.8-0.1c0.4,0,0.8-0.1,1.2-0.2c2.3-0.5,5.1-1.9,8.3-4.2c0.5-0.3,1.2-0.9,2.3-1.7
	c1-0.8,2.1-1.7,3.3-2.7c1.2-1,2.2-1.8,3.1-2.6c0,0,0,0,0.1-0.1c0,0.3,0.1,0.5,0.1,0.8c0.1,0.5,0.2,0.9,0.4,1.4
	c0.4,1,1.2,2.1,2.3,3.4c1.4,1.6,2.2,2.9,2.7,4.1l0.3,0.7l-0.9,0.8c-6.9,5.9-11.6,11.2-14.2,15.9c-1.5,2.8-2.2,4.7-2.1,5.6
	c0.1,1,0.2,1.5,0.2,1.6c0.3,1.5,1.3,2.2,3,2.2c0.3,0,0.6,0,0.8-0.1c0.2,0,0.5-0.1,0.9-0.2c4.3-1.7,8.2-5.8,11.8-12.2
	c2.1-3.9,3-7.4,2.8-10.6c0-0.4,0-0.8-0.1-1.1c0-0.4-0.1-0.7-0.1-0.9s-0.1-0.3-0.1-0.5c0-0.1,0-0.2,0-0.3c0.1-0.1,0.6-0.6,1.7-1.5
	C274.9,166.3,274.9,166,274.8,165.8"/>
<path class="st0" d="M151.6,157.6c-0.1,0.9-0.2,2.1-0.4,3.5s-0.3,2.8-0.5,4.3c-1.8,14.3-3.9,26-6.4,35.1c-2,7.1-4.3,12.7-6.9,16.9
	c-0.6,0.9-1.3,1.9-2.1,2.9s-1.5,1.9-2.2,2.5c-2.7,2.8-5.8,4.9-9.3,6.3c-0.4,0.2-0.9,0.3-1.3,0.5c-0.5,0.1-1.1,0.3-2,0.5
	c-0.8,0.2-1.3,0.3-1.7,0.4c-0.4,0.1-0.8,0.1-1.1,0.2c-0.3,0-0.8,0-1.3,0.1c-4.9,0.1-9.1-1.5-12.7-4.7c-2.8-2.8-4.7-6.3-5.6-10.6
	l-0.2-1c-1-7.4,0.6-14.9,4.6-22.5c4.3-7.7,11.2-14.9,20.9-21.7c7.9-5.6,16.7-10.1,26.3-13.5c0.5-0.2,1-0.3,1.3-0.4
	c0.3-0.1,0.5-0.2,0.6-0.2h0.1C151.7,156.2,151.7,156.7,151.6,157.6 M157.8,114.6c-0.1,0.1-0.3,0.7-0.4,0.9c-0.3,0.7-0.7,1.7-1.1,3.2
	c-0.4,1.4-0.8,2.9-1.1,4.5c-0.2,1.1-0.4,2.4-0.6,4c-0.2,1.5-0.4,3.7-0.7,6.4s-0.6,6.5-1.1,11.2c-0.2,2.5-0.4,4.4-0.5,5.8
	c-0.1,1.4-0.2,2.4-0.3,2.9l-0.1,0.9c0,0-0.3,0.1-0.7,0.2c-0.4,0.1-0.9,0.3-1.5,0.5c-9.1,3.2-17.5,7.4-25.4,12.6
	c-2,1.3-4.1,2.9-6.3,4.7c-2.3,1.8-4.2,3.4-5.8,5c-6.6,6.2-11.2,12.9-13.9,19.9c-2.3,6.7-3,12.9-1.9,18.6c1.3,5.5,3.8,9.7,7.6,12.6
	c3.8,2.9,8.4,4.1,13.8,3.7c0.7-0.1,1.4-0.2,2.2-0.4l0.9-0.2c1.2-0.3,2.2-0.6,3.1-0.9c4.9-1.9,9.1-5,12.6-9.4c2.8-3.4,5.2-8,7.2-13.7
	c1.4-3.7,2.6-7.9,3.7-12.5c2.4-10.5,4.3-22.7,5.8-36.7c0.1-0.7,0.2-1.4,0.2-1.9c0.1-0.5,0.1-0.8,0.1-0.9c0.1-0.1,1-0.4,2.5-0.8
	c1.5-0.4,3.4-0.9,5.6-1.5c2.7-0.7,4.7-1.1,6.1-1.4c1.4-0.3,2.5-0.5,3.1-0.4c0.6,0,1.1,0.2,1.3,0.5c0.2,0.2,0.3,0.2,0.4,0.3
	c0.1,0,0.2,0,0.3,0s0.2-0.1,0.3-0.1c0.2-0.1,0.3-0.3,0.4-0.4c0.1-0.2,0.1-0.4,0-0.6V151c-0.2-0.3-0.6-0.6-1.2-0.8
	c-0.6-0.2-1.4-0.2-2.2-0.2c-0.9,0.1-2.2,0.3-3.9,0.6c-0.7,0.1-1.4,0.3-2.2,0.5c-2.7,0.6-5.5,1.4-8.5,2.2c-0.6,0.2-1,0.3-1.3,0.3
	c-0.3,0.1-0.5,0.1-0.6,0.1h-0.2v-0.5c0-0.3,0-0.7,0.1-1.1c0.1-0.5,0.1-1.2,0.2-2.3c0.1-1,0.2-2.1,0.3-3.1c0.5-5.8,0.9-10.3,1.3-13.6
	c0.3-3.3,0.6-5.9,0.9-7.7c0.3-1.8,0.6-3.4,0.9-4.7c0.4-1.7,0.8-3,1.1-3.9s0.7-1.6,1.1-2c0.3-0.3,0.5-0.6,0.6-0.7s0.1-0.3,0.1-0.3
	c0-0.1-0.1-0.2-0.1-0.2C159.2,113.3,158.5,113.5,157.8,114.6"/>
<path class="st0" d="M78.8,163.2c0.6-0.1,1.2-0.6,1.9-1.3c0.4-0.4,0.6-0.8,0.5-1c0-0.1-0.1-0.2-0.2-0.3s-0.3-0.1-0.4-0.1
	c-0.3,0.1-0.6,0.3-1,0.6c-0.2,0.2-0.3,0.3-0.5,0.4c-0.1,0.1-0.2,0.2-0.2,0.2c-0.1,0-0.2-0.1-0.3-0.3c-0.1-0.2-0.2-0.4-0.3-0.7
	l-0.4-1.7c-0.1-0.6-0.2-1.3-0.2-2.3c-0.1-1-0.1-2.3-0.1-4.1c-0.3-7.7,0.2-19,1.4-33.9c0.2-2.1,0.4-4.7,0.7-7.8
	c0.3-3.1,0.5-6.2,0.8-9.3c0.3-3.1,0.5-5.7,0.7-7.8c0.2-2.1,0.3-3.2,0.4-3.3c0.1,0,0.9-0.3,2.3-0.8s2.4-0.8,2.9-1s1.3-0.4,2.4-0.8
	c4.9-1.7,7.9-2.7,8.9-2.9c0.2,0,0.3-0.1,0.4,0c0.2,0,0.3,0,0.5,0s0.4-0.2,0.6-0.3c0.2-0.2,0.3-0.4,0.2-0.6c0-0.1-0.1-0.2-0.1-0.2
	c-0.2-0.2-0.5-0.3-1-0.3c-0.1,0-0.3,0-0.5,0.1c-0.8,0.2-2.5,0.7-5.2,1.6c-3.3,1.1-5.4,1.8-6.4,2.1c-1,0.3-1.8,0.6-2.6,0.9
	c-0.7,0.2-1.2,0.4-1.6,0.6c-0.4,0.1-0.7,0.2-0.8,0.2h-0.1c0-0.1,0.1-0.8,0.2-2.2c0.1-1.4,0.3-3.1,0.6-5.2c0.2-2.1,0.5-4.2,0.7-6.3
	c0.2-2.1,0.5-4,0.7-5.5c2-15.3,4-27.5,6-36.8c0.4-1.7,0.7-3.1,1-4.3c0.3-1.2,0.5-2,0.7-2.4c0-0.1,0.1-0.2,0.1-0.1
	c0,0,0.1,0.1,0.2,0.2c0.2,0.3,0.5,0.4,0.9,0.3c0.1,0,0.2-0.1,0.3-0.1c0.4-0.2,0.5-0.5,0.4-0.8v-0.1c-0.2-0.5-0.4-1-0.5-1.4
	c-0.2-0.4-0.3-0.6-0.4-0.7c-0.2-0.2-0.5-0.2-0.7-0.2h-0.2c-0.4,0.1-0.7,0.4-0.9,0.8c-0.2,0.4-0.4,0.9-0.6,1.5
	c-0.2,0.7-0.5,1.3-0.7,2c-1.2,4.3-2.5,10.7-3.9,19.2s-2.8,17.6-4,27.4c-0.2,2.1-0.5,4-0.6,5.4c-0.2,1.5-0.4,3.6-0.7,6.4
	c-0.1,1-0.2,1.8-0.3,2.5c-0.1,0.7-0.1,1-0.2,1.1c0,0-0.3,0.1-0.7,0.3c-0.5,0.2-1,0.4-1.7,0.6c-4.1,1.2-7.2,2.3-9.2,3
	c-2.1,0.7-5.1,1.8-9.2,3.4c-2.9,1.1-6,2.3-9.4,3.7c-3.4,1.3-6,2.4-7.8,3.2h-0.2l-0.1-0.1c0-0.2,0.1-1,0.3-2.4s0.4-3.1,0.7-5.1
	s0.6-3.9,0.8-5.6c0.1-0.7,0.2-1.4,0.3-2.1c0.1-0.8,0.3-1.5,0.3-2.2c0.1-0.6,0.2-1,0.2-1.3c3.3-22,6-36.5,8-43.6c0.2-0.6,0.3-1,0.3-1
	l0,0c0,0.1,0,0.4-0.1,1s-0.2,1-0.2,1.2c0,0.1,0,0.2,0,0.3c0,0.2,0.1,0.2,0.2,0.3c0.2,0.1,0.4,0.1,0.6,0c0.2,0,0.4-0.1,0.5-0.3
	c0.3-0.2,0.5-1.3,0.7-3.1c0.2-1.6,0.2-2.7,0.1-3.3c0-0.2-0.1-0.3-0.1-0.4c-0.2-0.3-0.5-0.4-0.8-0.3H53c-0.4,0.1-0.7,0.4-1,1
	c-1.6,2.6-3.7,11.9-6.5,28c-0.8,4.9-1.8,11.4-3.1,19.5s-2.2,14.4-2.7,18.7c0,0.4-0.1,0.7-0.1,1s-0.1,0.5-0.1,0.5
	c0,0.1,0,0.1-0.1,0.2s-0.3,0.2-0.5,0.3c-0.2,0.1-0.6,0.3-1,0.5c-3.9,1.7-8.1,3.6-12.3,5.7c-4.3,2.1-8.1,4.1-11.5,5.9
	c-1.8,1-3.8,2.1-5.8,3.3c-2.1,1.2-3.8,2.2-5.4,3.1c-1.5,0.9-2.4,1.4-2.6,1.6C0,125.4,0,125.6,0,125.8c0,0.2,0.1,0.3,0.3,0.4
	c0.1,0.1,0.3,0.1,0.5,0h0.1c0.2-0.1,0.6-0.3,1.1-0.6c2-1.1,4.5-2.3,7.5-3.6c3.1-1.3,6.1-2.5,9.2-3.5c1-0.3,2.1-0.6,3.1-0.8
	c1-0.2,1.8-0.4,2.2-0.5c0.9-0.2,1.6-0.3,2.2-0.4c3.4-0.4,6-0.1,7.9,1c0.9,0.5,1.7,1.2,2.4,2.3c0,0,0,0.1,0.1,0.1
	c0.2,0.3,0.4,0.5,0.4,0.7c0,0.1,0.1,0.3,0.1,0.3c0.1,0.3,0.1,0.7,0,1.1c-0.1,0.6-0.2,1.6-0.3,2.9v0.3c-0.4,3.9-0.7,7.2-0.8,10
	c-0.2,2.8-0.2,4.6,0,5.5c0,0.2,0,0.3,0,0.4c0.2,0.8,0.6,1.2,1.4,1c0.8-0.2,1.5-1.4,2-3.8c1.3-5.8,1.5-10.7,0.6-14.8
	c-0.2-0.8-0.4-1.6-0.6-2.3l-0.3-0.8l0.6-5.2c0.2-1.5,0.3-2.9,0.5-4.3s0.3-2.5,0.4-3.1c0.1-0.7,0.2-1.2,0.2-1.7
	c0.1-0.5,0.1-0.7,0.1-0.8c0.2-0.1,1.3-0.6,3.3-1.5s4.5-1.9,7.4-3c2.9-1.2,5.9-2.3,8.8-3.4c3.4-1.3,5.6-2.1,6.7-2.5s3.3-1.2,6.6-2.3
	c3.3-1.1,5.2-1.8,5.6-1.9l0,0c0,0,0,0.4-0.1,1.3c-0.1,0.8-0.2,1.8-0.3,3c-2.4,24.3-3.6,42.5-3.5,54.7c0,3.3,0.1,5.6,0.2,6.9
	c0.1,1.3,0.2,2.3,0.4,3.1c0.1,0.5,0.2,1,0.4,1.4c0.2,0.5,0.4,0.9,0.8,1.2c0.3,0.3,0.7,0.4,1.1,0.5C78.5,163.2,78.6,163.2,78.8,163.2
	 M38.6,134.8c-0.1,0.9-0.3,1.8-0.4,2.5c-0.1,0.8-0.2,1.2-0.3,1.4l0,0c0-0.2,0-0.7,0-1.5c0-1,0.1-2.2,0.2-3.6
	c0.1-1.4,0.2-2.8,0.3-4.1c0.1-0.6,0.1-1.2,0.1-1.7s0.1-0.8,0.1-0.9s0-0.1,0-0.2s0.1-0.1,0.1-0.1v0.1c0,0.1,0,0.3,0.1,0.6
	c0,0.4,0.1,1,0.1,1.7s0,1.3,0,2s0,1.2-0.1,1.7C38.8,133.1,38.7,133.9,38.6,134.8 M39.2,106.8c-0.1,1.2-0.3,2.6-0.5,4.1
	c-0.1,0.7-0.2,1.5-0.3,2.2l-0.7,5.4l-0.6-0.6c-0.8-0.8-1.8-1.4-2.9-1.9c-1.9-0.7-4.1-0.9-6.8-0.7c-1.1,0.1-2.4,0.4-4,0.7
	c-1.6,0.3-3.1,0.7-4.4,1.1c-0.6,0.2-1.3,0.4-2,0.7c-0.8,0.3-1.5,0.5-2.1,0.7s-1,0.4-1.1,0.4s-0.1,0.1-0.1,0.1v-0.1
	c0.2-0.1,1.2-0.7,2.9-1.6s3.7-1.9,6-3.1s4.4-2.2,6.2-3c1.2-0.6,2.5-1.2,4.1-1.9c1.5-0.7,2.9-1.3,4.1-1.9c1.2-0.6,1.9-0.9,2-0.9
	s0.1,0,0.1,0v0.1L39.2,106.8z M97.1,102.5c0.1,0.1,0.2,0.1,0.3,0.1c0.2,0,0.4,0,0.6-0.1l0.4-0.1c0.4-0.2,0.8-0.3,1.1-0.5
	c0.6-0.4,1.3-1,2-1.8s1.6-2.1,2.8-3.8l1.5-2.1l0.3,0.2c0.1,0.1,0.3,0.1,0.3,0.1s0.2,0,0.3,0c0.2,0,0.4-0.2,0.5-0.5s0.2-0.7,0.3-1.3
	c0-0.5,0.1-0.8,0.2-1s0.2-0.4,0.4-0.6c0.2-0.4,0.5-0.7,0.9-1.1s0.6-0.7,0.9-0.9c0.1-0.1,0.2-0.2,0.3-0.2l0.1-0.1h0.1
	c0,0,0.1,0.1,0.1,0.2s0,0.4,0,0.9s-0.1,1.1-0.2,1.8c-0.3,2.5-0.3,4.5,0,6.1c0.5,2.4,1.7,3.8,3.7,4.2c0.7,0.2,1.6,0.3,2.4,0.1
	c2.1-0.5,4.3-1.9,6.7-4.3c2.4-2.4,4.5-4.7,6.3-7c1.1-1.3,2-2.4,2.7-3c0.3-0.3,0.5-0.5,0.5-0.7s0-0.3,0-0.4c0-0.2-0.1-0.3-0.3-0.3
	c-0.1-0.1-0.2-0.1-0.3-0.1c-0.2,0-0.3,0.1-0.5,0.3c-0.8,0.9-1.7,1.9-2.6,3.1c-1.6,2-3.3,4-5.2,6c-1.9,2-3.8,3.5-5.9,4.5
	c-0.6,0.3-1.1,0.4-1.6,0.5c-2,0.4-3.3-0.2-4-1.9c-0.2-0.5-0.3-0.9-0.4-1.3s-0.1-1-0.1-1.7s0.1-1.7,0.1-3c0.1-1.1,0.1-1.9,0.2-2.5
	c0-0.6,0-1,0-1.1c0-0.2,0-0.3-0.1-0.5v-0.1c-0.4-0.9-1-1.3-1.9-1.1c-0.3,0.1-0.7,0.3-1.2,0.6c-0.4,0.3-0.9,0.7-1.2,1.1l-0.5,0.6
	l-0.4-0.3c-0.7-0.6-1.5-0.7-2.6-0.5c-0.2,0-0.4,0.1-0.7,0.2c-1.9,0.7-3.5,2.2-5,4.3c-1.5,2.1-2.3,4.3-2.5,6.5c0,0.4,0,0.6,0,0.8
	c0,0.2,0,0.4,0.1,0.5c0,0.1,0.1,0.3,0.2,0.4c0.1,0.2,0.2,0.4,0.3,0.5c0.1,0.1,0.2,0.2,0.4,0.3C96.9,102.3,97,102.4,97.1,102.5
	 M97.8,100.9c-0.1,0-0.2,0-0.2,0v-0.1c0-0.1,0-0.4,0-0.8c0.1-1.7,0.8-3.5,1.9-5.4c1.5-2.2,3-3.7,4.6-4.3l0.4-0.1
	c0.7-0.1,1.1-0.1,1.2,0.2c0,0.1,0.1,0.1,0.1,0.2s0,0.2,0,0.3c-0.1,0.2-0.3,0.5-0.5,0.8c-0.2,0.2-0.5,0.6-0.9,1.2s-0.9,1.3-1.4,2
	s-0.9,1.4-1.3,2s-0.7,1-0.8,1.1c-1,1.3-1.9,2.2-2.7,2.7C98,100.8,97.9,100.8,97.8,100.9 M139.4,113.5l0.4-0.1
	c0.4-0.1,0.8-0.4,1.3-0.7c1-0.6,2.2-1.7,3.6-3.3c1.4-1.6,4.2-5.4,8.4-11.4c4.3-6,7.2-10.3,8.9-12.7c1.7-2.5,2.7-4,3-4.6
	c0.1-0.3,0.2-0.4,0.2-0.5s0-0.2,0-0.2v-0.1c-0.1-0.3-0.3-0.4-0.7-0.3c-0.3,0.1-0.6,0.2-0.8,0.5c-3.1,4.6-7.1,10.3-11.9,17.1
	c-4.9,6.8-8,11-9.4,12.5s-2.4,2.4-3,2.5c-0.7,0.1-1.2-0.2-1.6-1c-0.2-0.4-0.4-0.9-0.5-1.5l-0.1-0.6c-0.1-0.8-0.1-1.9,0-3.2
	c0-1.1,0.1-2.2,0.3-3.5s0.5-3.1,1-5.4c0.3-1.7,0.6-2.9,0.7-3.8c0.2-0.9,0.3-1.6,0.3-2.1c0.1-0.6,0.1-1.1,0.1-1.6c0-0.7,0-1.1,0-1.3
	c0-0.2,0-0.3-0.1-0.4c0-0.2-0.1-0.3-0.2-0.5c-0.4-1.4-2.2-1.7-5.3-1.2l-1.1,0.2l1.3-2.3c1-1.7,1.7-3.1,2.1-4.1
	c0.4-1,0.7-1.8,0.7-2.5c0-0.3,0-0.5,0-0.8c0-0.2-0.1-0.3-0.2-0.3c-0.3-0.4-0.8-0.6-1.3-0.4c-0.2,0.1-0.5,0.2-0.8,0.3
	c-1,0.5-2.1,1.5-3.3,3c-1.6,2.1-2.5,3.7-2.6,4.9c-0.2,1.2-0.2,2-0.1,2.4c0.2,0.8,0.7,1.3,1.5,1.5c0.5,0.1,1.5,0,3-0.2
	c0.8-0.2,1.5-0.3,2.2-0.4s1.2-0.1,1.4,0s0.4,0.2,0.6,0.4c0.2,0.2,0.3,0.4,0.4,0.6v0.2c0.1,0.5,0.1,1.2,0,2.3c-0.1,1.2-0.5,3.1-1,5.9
	c-0.4,1.8-0.6,3.2-0.8,4.2s-0.3,1.8-0.4,2.5c-0.1,0.7-0.2,1.3-0.2,2c-0.2,2-0.2,3.6,0.1,4.9c0.1,0.7,0.4,1.2,0.6,1.7
	c0.5,1.1,1.4,1.6,2.5,1.6C138.9,113.6,139.1,113.5,139.4,113.5 M131.7,85.7c-0.3,0.4-0.4,0.7-0.5,0.7c-0.4,0-0.6-0.2-0.7-0.6
	c0-0.2-0.1-0.5,0-0.8c0.2-2,1.2-4,3.2-6.2c0.8-0.9,1.4-1.3,1.7-1.4c0.1,0,0.1,0,0.2,0.2v0.1c-0.1,1.1-1,3.2-2.8,6.4
	C132.3,84.7,132,85.3,131.7,85.7 M171.6,106.6l0.4-0.1c0.4-0.1,0.8-0.4,1.3-0.7c1-0.6,2.2-1.7,3.6-3.3c1.4-1.6,4.2-5.4,8.4-11.4
	c4.3-6,7.2-10.3,8.9-12.7c1.7-2.5,2.7-4,3-4.6c0.1-0.2,0.2-0.4,0.2-0.5s0-0.2,0-0.2V73c-0.1-0.3-0.3-0.4-0.7-0.3
	c-0.3,0.1-0.6,0.2-0.8,0.5c-3.1,4.6-7.1,10.3-11.9,17.1c-4.9,6.8-8,11-9.4,12.5s-2.4,2.4-3,2.5c-0.7,0.1-1.2-0.2-1.6-1
	c-0.2-0.4-0.4-0.9-0.5-1.5l-0.1-0.6c-0.1-0.8-0.1-1.9,0-3.2c0-1.1,0.1-2.2,0.3-3.5s0.5-3.1,1-5.4c0.3-1.7,0.6-2.9,0.7-3.8
	c0.2-0.9,0.3-1.6,0.3-2.1c0.1-0.6,0.1-1.1,0.1-1.6c0-0.7,0-1.1,0-1.3c0-0.2,0-0.3-0.1-0.4c0-0.2-0.1-0.3-0.2-0.5
	c-0.4-1.4-2.2-1.7-5.3-1.2l-1.1,0.2l1.3-2.3c1-1.7,1.7-3.1,2.1-4.1c0.4-1,0.7-1.8,0.7-2.5c0-0.3,0-0.5,0-0.8c0-0.2-0.1-0.3-0.2-0.3
	c-0.3-0.4-0.8-0.6-1.3-0.4c-0.2,0.1-0.5,0.2-0.8,0.3c-1,0.5-2.1,1.5-3.3,3c-1.6,2.1-2.5,3.7-2.6,4.9c-0.2,1.2-0.2,2-0.1,2.4
	c0.2,0.8,0.7,1.3,1.5,1.5c0.5,0.1,1.5,0,3-0.2c0.8-0.2,1.5-0.3,2.2-0.3c0.7-0.1,1.2-0.1,1.4,0s0.4,0.2,0.6,0.4
	c0.2,0.2,0.3,0.4,0.4,0.6v0.2c0.1,0.5,0.1,1.2,0,2.3c-0.1,1.2-0.5,3.1-1,5.9c-0.4,1.8-0.6,3.2-0.8,4.2s-0.3,1.8-0.4,2.5
	c-0.1,0.7-0.2,1.3-0.2,2c-0.2,2-0.2,3.6,0.1,4.9c0.1,0.7,0.4,1.2,0.6,1.7c0.5,1.1,1.4,1.6,2.5,1.6
	C171.2,106.7,171.4,106.7,171.6,106.6 M164,78.9c-0.3,0.4-0.4,0.7-0.5,0.7c-0.4,0-0.6-0.2-0.7-0.6c0-0.2-0.1-0.5,0-0.8
	c0.2-2,1.2-4,3.2-6.2c0.8-0.9,1.4-1.3,1.7-1.4c0.1,0,0.1,0,0.2,0.2v0.1c-0.1,1.1-1,3.2-2.8,6.4C164.6,77.9,164.3,78.4,164,78.9
	 M202,59.2c0.2,0,0.4-0.1,0.6-0.3c0-0.1,0.1-0.2,0.2-0.4c0.1-0.2,0.2-0.3,0.3-0.6c0.2-0.4,0.4-0.8,0.6-1.1c0.3-0.3,0.6-0.6,1.1-0.9
	c0.4-0.2,0.6-0.4,0.8-0.6c0.2-0.1,0.3-0.2,0.3-0.3s0.1-0.2,0.1-0.3l0,0c-0.1-0.4-0.3-0.5-0.8-0.4c-0.3,0.1-0.8,0.3-1.4,0.7
	c-1,0.6-1.8,1.4-2.2,2.4c-0.3,0.6-0.4,1-0.3,1.3c0,0.2,0.1,0.3,0.3,0.3C201.6,59.2,201.8,59.2,202,59.2 M199.7,91.2
	c1.4-0.3,2.9-1,4.4-2.1c1.9-1.5,3.7-3.4,5.3-5.8s3.3-5.2,5-8.4c1.7-3.1,2.7-4.8,3-5.1c0.3-0.5,0.4-0.9,0.4-1.1l0,0
	c-0.1-0.2-0.3-0.3-0.5-0.3c-0.1,0-0.2,0.1-0.4,0.2s-0.3,0.2-0.5,0.3c-0.2,0.1-0.7,1-1.6,2.7c-0.8,1.6-2.1,3.9-3.8,6.9
	s-3.6,5.6-5.6,7.7c-2,2.2-3.8,3.4-5.4,3.7c-0.5,0.1-1.1,0.1-1.7,0.1c-1.3-0.4-2.2-1.5-2.6-3.3c-0.4-1.8-0.3-4.2,0.2-7.4
	c0.3-1.7,0.8-3.3,1.3-4.9s1.1-2.8,1.5-3.5c0.2-0.3,0.4-0.6,0.6-1.1c0.2-0.4,0.4-0.8,0.6-1.2c0.1-0.4,0.2-0.6,0.2-0.8
	c-0.1-0.3-0.2-0.5-0.4-0.5s-0.4,0-0.5,0c-0.2,0.1-0.5,0.2-0.7,0.4c-0.5,0.5-1.1,1.7-1.8,3.4c-0.8,1.7-1.4,3.5-1.9,5.2
	c-0.6,2-0.9,3.9-1.1,5.8c-0.2,1.9-0.2,3.5,0.1,4.7c0.6,3,2.2,4.5,4.5,4.6C198.8,91.4,199.2,91.3,199.7,91.2 M220,77.3
	c0.3,0,0.5,0,0.8-0.1c0.4,0,0.8-0.1,1.2-0.2c2.3-0.5,5.1-1.9,8.3-4.2c0.5-0.3,1.2-0.9,2.3-1.7c1-0.8,2.1-1.7,3.3-2.7
	s2.2-1.8,3.1-2.6c0.9-0.8,1.4-1.2,1.5-1.4c0.1-0.1,0.1-0.3,0.2-0.3c0-0.1,0-0.2,0-0.3c-0.1-0.2-0.2-0.3-0.3-0.3s-0.3,0-0.4,0
	c-0.1,0-0.2,0.1-0.3,0.1c-0.1,0.1-0.5,0.4-1.2,0.9c-0.7,0.6-1.5,1.2-2.4,2c-2.2,1.9-3.9,3.3-5.3,4.4c-1.4,1-2.6,1.9-3.6,2.5
	c-1.5,0.9-2.9,1.6-4.1,2l-0.5,0.1c-0.4,0.1-0.8,0.1-1.2,0.2c-0.7,0.1-1.2,0.1-1.6,0c-1.5-0.2-2.4-1-2.6-2.3c-0.1-0.6-0.1-1.3,0-2
	c0.1-0.6,0.2-1,0.3-1.3c0.1-0.2,0.5-0.5,0.9-0.7c1.5-0.9,3-1.9,4.6-3.3c1.5-1.3,2.7-2.6,3.6-3.8c0.8-1.2,1.2-2.1,1-2.7
	c-0.1-0.5-0.5-0.8-1.2-0.9c-0.3,0-0.6,0-1,0.1c-0.8,0.2-1.7,0.6-2.7,1.3c-1.4,1-2.8,2.4-4.1,4.1c-0.4,0.5-0.8,1.1-1.2,1.9
	s-0.8,1.4-1,2.1c-0.2,0.4-0.3,0.7-0.4,0.8c-0.1,0.2-0.2,0.3-0.3,0.3c-0.3,0.2-0.5,0.4-0.6,0.6s-0.1,0.3-0.1,0.4s0.1,0.2,0.3,0.3
	c0.1,0,0.1,0.1,0.2,0.2l0,0c0,0.1,0,0.1,0,0.2s0,0.3-0.1,0.5c-0.1,0.8-0.1,1.6,0,2.4c0.2,0.8,0.4,1.4,0.8,2c0.3,0.4,0.8,0.7,1.4,1
	c0.6,0.3,1.2,0.4,1.9,0.5C219.6,77.3,219.8,77.3,220,77.3 M218.7,67.5c-0.2,0.1-0.3,0.2-0.4,0.2c0-0.1,0-0.2,0.2-0.5
	c0.2-0.4,0.4-0.8,0.7-1.3s0.6-1,1-1.4c0.9-1.2,1.9-2.2,2.9-3c0.4-0.3,0.9-0.6,1.3-0.8c0.4-0.2,0.7-0.4,1-0.4c0.2,0,0.3,0,0.3,0.1
	v0.1c-0.1,0.7-0.8,1.7-2,3c-1.2,1.2-2.6,2.5-4.4,3.7C219.1,67.2,218.9,67.4,218.7,67.5 M235.6,116.3c0.3,0.4,0.6,0.6,0.8,0.7
	l0.1,0.1c0.1,0,0.2,0.1,0.4,0.1s0.3,0,0.5,0s0.4-0.1,0.5-0.2s0.3-0.2,0.5-0.3c0.3-0.3,0.5-0.6,0.4-0.8c0-0.1-0.1-0.2-0.2-0.3
	c-0.1-0.1-0.2-0.1-0.3-0.1s-0.3,0-0.6,0l-0.6,0.1l-0.3-0.4c-0.1-0.2-0.2-0.4-0.3-0.5c0-0.2-0.1-0.3-0.1-0.3
	c-0.1-0.2-0.1-0.5-0.1-0.9c0-0.5-0.1-1.1-0.1-2c-0.1-1.3,0-2.6,0.1-4.1c0.1-1.4,0.3-2.5,0.5-3.3c0.1-0.5,0.2-1,0.2-1.4
	c0-0.2,0-0.8,0.1-1.7l1.6-18.5c0.6-6.5,1.2-12.5,1.8-18c0.5-5.5,1-9.4,1.3-11.9c1.6-12,0.8-9.6,2.4-17.5c0.2-0.8,0.3-1.4,0.4-1.9
	c0.1-0.5,0.2-0.9,0.2-1.3c0.1-0.3,0.1-0.6,0.2-0.8s0.1-0.3,0.1-0.4s0.1-0.2,0.1-0.2s0.1,0,0.1-0.1c1.5-0.5,3.8-1.1,6.7-1.9
	c2.9-0.7,6-1.5,9.2-2.1l2.5-0.5c4.2-0.9,6.7-1.2,7.6-1c0.2,0.1,0.5,0.1,0.7,0c0.2,0,0.4-0.1,0.5-0.3c0.2-0.2,0.3-0.4,0.3-0.6
	c0-0.1,0-0.1-0.1-0.2c-0.1-0.3-0.4-0.5-0.9-0.6c-1.4-0.2-4,0.1-7.9,1l-1.4,0.3c-4.7,1.1-8.1,1.9-10.2,2.6c-2.6,0.7-4.6,1.2-6.1,1.5
	c-0.2,0-0.3,0.1-0.4,0.1c0,0-0.1,0-0.1-0.1v-0.1c0-0.1,2.5-13,2.7-13.7c0.2-0.8,0.2-1.3,0.2-1.8c0-0.4,0-0.9,0.2-1.5
	c0.1-0.4,0.2-0.7,0.2-0.9c0.1-0.2,0.1-0.3,0.1-0.3l0,0c0.1,0,0.1,0,0.1,0c0.2,0.1,0.4,0.1,0.5,0.1s0.2-0.1,0.3-0.1
	c0.3-0.1,0.5-0.3,0.6-0.6c0-0.1,0.2-0.5,0.3-1c0.2-0.6,0.4-1.3,0.7-2.1c0.3-1,0.6-1.9,0.8-2.7s0.3-1.6,0.3-2.3
	c0-0.4,0.1-0.7,0.1-0.8s0-0.2,0-0.3s0-0.1-0.1-0.1c0-0.1-0.1-0.1-0.2-0.2C252.1,0,251.8,0,251.6,0s-0.4,0.2-0.6,0.3
	c-0.7,0.7-1.6,2.5-2.5,5.4s-4,18.5-4.5,22.1c-0.1,0.3-0.1,0.6-0.2,0.9c-0.1,0.3-0.1,0.4-0.1,0.5s-0.1,0.1-0.1,0.1
	c-0.1,0-0.2,0.1-0.3,0.1s-0.3,0.1-0.6,0.2c-0.7,0.2-1.8,0.5-3.4,0.9c-1.6,0.4-3.2,0.9-4.8,1.3c-1.6,0.5-4,1.2-7,2.3
	c-3,1-6.8,2.4-11.3,4s-7.3,2.8-8.4,3.5c-0.4,0.3-0.6,0.5-0.6,0.7s0,0.3,0,0.3c0,0.2,0.2,0.4,0.5,0.5c0.1,0,0.2,0.1,0.3,0
	c0.1,0,0.3,0,0.5-0.1c0.2,0,0.5-0.1,0.9-0.2c0.4-0.1,0.7-0.2,1.1-0.3c0.4-0.1,0.6-0.2,0.9-0.2c0.8-0.2,1.2-0.5,1.2-1l0,0v-0.1
	c0,0,0,0,0.1-0.1c0.1,0,0.1-0.1,0.3-0.1c0.1-0.1,0.3-0.1,0.5-0.2c0.2-0.1,0.5-0.2,0.9-0.3s0.8-0.3,1.3-0.5l0.7-0.2
	c6.2-2.3,11.3-4.1,15.4-5.3c4.1-1.3,6.7-2.1,7.8-2.3c1.1-0.3,1.9-0.5,2.5-0.7c0.5-0.1,0.9-0.2,1.1-0.3c0.2,0,0.3-0.1,0.3,0
	c0,0,0,0.2,0,0.5s-0.1,0.6-0.2,1l-2.2,14.5c0.1,2.8-0.9,7.6-1.6,14.5c-0.7,6.8-1.5,14.3-2.2,22.3l-2.5,27.3c0,0.6,0,1.3,0.1,2.1
	c0.1,0.7,0.1,1.3,0.2,1.6C235,115.5,235.2,115.9,235.6,116.3"/>
</svg>
